solid Carriage
facet normal -0.713400989823465 0.700756040087348 1.13709033903285e-18
outer loop
vertex 81.7997375741307 17.8016745649683 4.49999999999999
vertex 81.1 17.0893104190391 1.19999999999997
vertex 81.1 17.0893104190391 4.49999999999999
endloop
endfacet
facet normal -0.713400989823465 0.700756040087348 1.13709033903285e-18
outer loop
vertex 81.1 17.0893104190391 1.19999999999997
vertex 81.7997375741307 17.8016745649683 4.49999999999999
vertex 81.7997375741307 17.8016745649683 1.19999999999998
endloop
endfacet
facet normal -3.57439314978211e-17 3.37432935848209e-16 1.0
outer loop
vertex 62.0045789382431 3.90724350063615 4.49999999999999
vertex 57.8741562121183 16.693037893914 4.49999999999999
vertex 55.1 17.0893104190391 4.49999999999999
endloop
endfacet
facet normal -3.57439314978211e-17 3.37432935848209e-16 1.0
outer loop
vertex 57.8741562121183 16.693037893914 4.49999999999999
vertex 62.0045789382431 3.90724350063615 4.49999999999999
vertex 60.1 16.3999999999999 4.49999999999999
endloop
endfacet
facet normal -3.57439314978211e-17 3.37432935848209e-16 1.0
outer loop
vertex 60.1 16.3999999999999 4.49999999999999
vertex 62.0045789382431 3.90724350063615 4.49999999999999
vertex 62.3258437878817 16.693037893914 4.49999999999999
endloop
endfacet
facet normal -3.57439314978211e-17 3.37432935848209e-16 1.0
outer loop
vertex 62.3258437878817 16.693037893914 4.49999999999999
vertex 62.0045789382431 3.90724350063615 4.49999999999999
vertex 74.1954210617569 3.90724350063615 4.49999999999999
endloop
endfacet
facet normal -3.57439314978211e-17 3.37432935848209e-16 1.0
outer loop
vertex 62.3258437878817 16.693037893914 4.49999999999999
vertex 74.1954210617569 3.90724350063615 4.49999999999999
vertex 64.4 17.5521815274538 4.49999999999999
endloop
endfacet
facet normal -3.57439314978211e-17 3.37432935848209e-16 1.0
outer loop
vertex 64.4 17.5521815274538 4.49999999999999
vertex 74.1954210617569 3.90724350063615 4.49999999999999
vertex 66.1811183182043 18.9188816817957 4.49999999999999
endloop
endfacet
facet normal -3.57439314978211e-17 3.37432935848209e-16 1.0
outer loop
vertex 66.1811183182043 18.9188816817957 4.49999999999999
vertex 74.1954210617569 3.90724350063615 4.49999999999999
vertex 67.5478184725462 20.7 4.49999999999999
endloop
endfacet
facet normal -3.57439314978211e-17 3.37432935848209e-16 1.0
outer loop
vertex 67.5478184725462 20.7 4.49999999999999
vertex 74.1954210617569 3.90724350063615 4.49999999999999
vertex 68.1 22.0330841324709 4.49999999999999
endloop
endfacet
facet normal -3.57439314978211e-17 3.37432935848209e-16 1.0
outer loop
vertex 68.1 22.0330841324709 4.49999999999999
vertex 74.1954210617569 3.90724350063615 4.49999999999999
vertex 68.6521815274538 20.7 4.49999999999999
endloop
endfacet
facet normal -3.57439314978211e-17 3.37432935848209e-16 1.0
outer loop
vertex 68.6521815274538 20.7 4.49999999999999
vertex 74.1954210617569 3.90724350063615 4.49999999999999
vertex 70.0188816817957 18.9188816817957 4.49999999999999
endloop
endfacet
facet normal -3.57439314978211e-17 3.37432935848209e-16 1.0
outer loop
vertex 70.0188816817957 18.9188816817957 4.49999999999999
vertex 74.1954210617569 3.90724350063615 4.49999999999999
vertex 71.8 17.5521815274538 4.49999999999999
endloop
endfacet
facet normal -3.57439314978211e-17 3.37432935848209e-16 1.0
outer loop
vertex 71.8 17.5521815274538 4.49999999999999
vertex 74.1954210617569 3.90724350063615 4.49999999999999
vertex 73.8741562121183 16.693037893914 4.49999999999999
endloop
endfacet
facet normal -3.57439314978211e-17 3.37432935848209e-16 1.0
outer loop
vertex 73.8741562121183 16.693037893914 4.49999999999999
vertex 74.1954210617569 3.90724350063615 4.49999999999999
vertex 76.1 16.3999999999999 4.49999999999999
endloop
endfacet
facet normal -3.57439314978211e-17 3.37432935848209e-16 1.0
outer loop
vertex 76.1 16.3999999999999 4.49999999999999
vertex 74.1954210617569 3.90724350063615 4.49999999999999
vertex 78.3258437878817 16.693037893914 4.49999999999999
endloop
endfacet
facet normal -3.57439314978211e-17 3.37432935848209e-16 1.0
outer loop
vertex 78.3258437878817 16.693037893914 4.49999999999999
vertex 74.1954210617569 3.90724350063615 4.49999999999999
vertex 81.1 17.0893104190391 4.49999999999999
endloop
endfacet
facet normal -4.44013639693349e-17 0.382683432365089 0.923879532511287
outer loop
vertex 75.4327303550044 1.55291427061512 5.79555495773441
vertex 61.2589311131956 3.0 5.19615242270663
vertex 60.7672696449957 1.55291427061512 5.79555495773441
endloop
endfacet
facet normal -4.44013639693349e-17 0.382683432365089 0.923879532511287
outer loop
vertex 61.2589311131956 3.0 5.19615242270663
vertex 75.4327303550044 1.55291427061512 5.79555495773441
vertex 74.9410688868043 3.0 5.19615242270663
endloop
endfacet
facet normal -3.05367491835261e-17 0.0874379895947978 0.996169964401467
outer loop
vertex 81.1 17.0893104190391 4.49999999999999
vertex 75.6004269257935 0.0 6.0
vertex 81.1 0.0 6.0
endloop
endfacet
facet normal 0.820802725472467 0.571211769711523 0.0
outer loop
vertex 52.5557444131789 20.1581037830634 1.19999999999998
vertex 53.1261259941968 19.338493997195 4.49999999999999
vertex 53.1261259941968 19.338493997195 1.19999999999998
endloop
endfacet
facet normal 0.820802725472467 0.571211769711523 0.0
outer loop
vertex 53.1261259941968 19.338493997195 4.49999999999999
vertex 52.5557444131789 20.1581037830634 1.19999999999998
vertex 52.5557444131789 20.1581037830634 4.49999999999999
endloop
endfacet
facet normal 4.43756570669246e-33 5.80662446086758e-17 -1.0
outer loop
vertex 49.919017552911 -4.33012701892219 1.19999999999997
vertex 55.1 -4.99999999999998 1.19999999999997
vertex 50.3346873331288 -6.21469662668579 1.19999999999997
endloop
endfacet
facet normal 4.43756570669246e-33 5.80662446086758e-17 -1.0
outer loop
vertex 55.1 -4.99999999999998 1.19999999999997
vertex 49.919017552911 -4.33012701892219 1.19999999999997
vertex 86.280982447089 -4.3301270189222 1.19999999999997
endloop
endfacet
facet normal 4.43756570669246e-33 5.80662446086758e-17 -1.0
outer loop
vertex 50.3346873331288 -6.21469662668579 1.19999999999997
vertex 55.1 -4.99999999999998 1.19999999999997
vertex 50.9249178156919 -8.56507193524295 1.19999999999997
endloop
endfacet
facet normal 4.43756570669246e-33 5.80662446086758e-17 -1.0
outer loop
vertex 50.9249178156919 -8.56507193524295 1.19999999999997
vertex 55.1 -4.99999999999998 1.19999999999997
vertex 51.5829236440167 -10.8973807577432 1.19999999999997
endloop
endfacet
facet normal 4.43756570669246e-33 5.80662446086758e-17 -1.0
outer loop
vertex 51.5829236440167 -10.8973807577432 1.19999999999997
vertex 55.1 -4.99999999999998 1.19999999999997
vertex 52.3081535631313 -13.209669164937 1.19999999999997
endloop
endfacet
facet normal 4.43756570669246e-33 5.80662446086758e-17 -1.0
outer loop
vertex 52.3081535631313 -13.209669164937 1.19999999999997
vertex 55.1 -4.99999999999998 1.19999999999997
vertex 53.1 -15.5 1.19999999999997
endloop
endfacet
facet normal 4.43756570669246e-33 5.80662446086758e-17 -1.0
outer loop
vertex 55.1 -4.99999999999998 1.19999999999997
vertex 86.280982447089 -4.3301270189222 1.19999999999997
vertex 81.1 -4.99999999999998 1.19999999999997
endloop
endfacet
facet normal 4.43756570669246e-33 5.80662446086758e-17 -1.0
outer loop
vertex 81.1 -4.99999999999998 1.19999999999997
vertex 86.280982447089 -4.3301270189222 1.19999999999997
vertex 81.1 -15.5 1.19999999999997
endloop
endfacet
facet normal 4.43756570669246e-33 5.80662446086758e-17 -1.0
outer loop
vertex 81.1 -15.5 1.19999999999997
vertex 86.280982447089 -4.3301270189222 1.19999999999997
vertex 83.1 -15.5 1.19999999999997
endloop
endfacet
facet normal 4.43756570669246e-33 5.80662446086758e-17 -1.0
outer loop
vertex 83.1 -15.5 1.19999999999997
vertex 86.280982447089 -4.3301270189222 1.19999999999997
vertex 83.8918464368686 -13.209669164937 1.19999999999997
endloop
endfacet
facet normal 4.43756570669246e-33 5.80662446086758e-17 -1.0
outer loop
vertex 83.8918464368686 -13.209669164937 1.19999999999997
vertex 86.280982447089 -4.3301270189222 1.19999999999997
vertex 84.6170763559832 -10.8973807577432 1.19999999999997
endloop
endfacet
facet normal 4.43756570669246e-33 5.80662446086758e-17 -1.0
outer loop
vertex 84.6170763559832 -10.8973807577432 1.19999999999997
vertex 86.280982447089 -4.3301270189222 1.19999999999997
vertex 85.275082184308 -8.56507193524295 1.19999999999997
endloop
endfacet
facet normal 4.43756570669246e-33 5.80662446086758e-17 -1.0
outer loop
vertex 85.275082184308 -8.56507193524295 1.19999999999997
vertex 86.280982447089 -4.3301270189222 1.19999999999997
vertex 85.8653126668712 -6.21469662668579 1.19999999999997
endloop
endfacet
facet normal 4.43756570669246e-33 5.80662446086758e-17 -1.0
outer loop
vertex 55.1 -15.5 1.19999999999997
vertex 53.1 -15.5 1.19999999999997
vertex 55.1 -4.99999999999998 1.19999999999997
endloop
endfacet
facet normal 0.661735890135535 7.22637768794586e-15 0.749737028368301
outer loop
vertex 61.3719305985792 -4.99999999999998 5.05839060410473
vertex 62.2961632535846 -4.24264068711928 4.24264068711928
vertex 61.3719305985791 -3.17953469741076 5.05839060410472
endloop
endfacet
facet normal 0.661735890135535 7.22637768794586e-15 0.749737028368301
outer loop
vertex 62.2961632535846 -4.24264068711928 4.24264068711928
vertex 61.3719305985792 -4.99999999999998 5.05839060410473
vertex 62.4968969577338 -4.99999999999998 4.06546830351106
endloop
endfacet
facet normal 0.661735890135535 7.22637768794586e-15 0.749737028368301
outer loop
vertex 62.2961632535846 -4.24264068711928 4.24264068711928
vertex 62.4968969577338 -4.99999999999998 4.06546830351106
vertex 62.4968969577338 -4.37858983858641 4.06546830351108
endloop
endfacet
facet normal -0.382683432365064 0.923879532511298 0.0
outer loop
vertex 62.3258437878817 16.693037893914 4.49999999999999
vertex 64.4 17.5521815274538 1.19999999999997
vertex 62.3258437878817 16.693037893914 1.19999999999997
endloop
endfacet
facet normal -0.382683432365064 0.923879532511298 0.0
outer loop
vertex 64.4 17.5521815274538 1.19999999999997
vertex 62.3258437878817 16.693037893914 4.49999999999999
vertex 64.4 17.5521815274538 4.49999999999999
endloop
endfacet
facet normal -0.967774690376629 -0.251817689343741 -2.36830881014565e-17
outer loop
vertex 48.415462584484 5.73882288264226 1.19999999999997
vertex 48.7820092000522 4.33012701892219 1.19999999999997
vertex 48.415462584484 5.73882288264226 4.49999999999999
endloop
endfacet
facet normal 1.0 1.45477691361869e-15 1.007581447773e-14
outer loop
vertex 81.1 2.50000000000002 4.33012701892238
vertex 81.1 -2.49826274752097 4.49999999999999
vertex 81.1 -2.49999999999998 4.33012701892238
endloop
endfacet
facet normal 1.0 1.45477691361869e-15 1.007581447773e-14
outer loop
vertex 81.1 -2.49826274752097 4.49999999999999
vertex 81.1 2.50000000000002 4.33012701892238
vertex 81.1 0.0 6.0
endloop
endfacet
facet normal 1.0 1.45477691361869e-15 1.007581447773e-14
outer loop
vertex 81.1 0.0 6.0
vertex 81.1 2.50000000000002 4.33012701892238
vertex 81.1 2.50000000000002 4.49999999999999
endloop
endfacet
facet normal 1.0 1.45477691361869e-15 1.007581447773e-14
outer loop
vertex 81.1 0.0 6.0
vertex 81.1 2.50000000000002 4.49999999999999
vertex 81.1 17.0893104190391 4.49999999999999
endloop
endfacet
facet normal 1.0 1.45477691361869e-15 1.007581447773e-14
outer loop
vertex 81.1 -4.99999999999998 4.49999999999999
vertex 81.1 0.0 6.0
vertex 81.1 -5.00000000000002 5.99999999999996
endloop
endfacet
facet normal 1.0 1.45477691361869e-15 1.007581447773e-14
outer loop
vertex 81.1 0.0 6.0
vertex 81.1 -4.99999999999998 4.49999999999999
vertex 81.1 -2.49826274752097 4.49999999999999
endloop
endfacet
facet normal 0.38268343236506 0.923879532511299 0.0
outer loop
vertex 71.8 17.5521815274538 4.49999999999999
vertex 73.8741562121183 16.693037893914 1.19999999999997
vertex 71.8 17.5521815274538 1.19999999999997
endloop
endfacet
facet normal 0.38268343236506 0.923879532511299 0.0
outer loop
vertex 73.8741562121183 16.693037893914 1.19999999999997
vertex 71.8 17.5521815274538 4.49999999999999
vertex 73.8741562121183 16.693037893914 4.49999999999999
endloop
endfacet
facet normal -0.537009646434745 0.274164068974803 0.797781112159977
outer loop
vertex 81.1 17.0893104190391 4.49999999999999
vertex 74.8280694014208 3.17953469741075 5.05839060410472
vertex 74.9410688868043 3.0 5.19615242270663
endloop
endfacet
facet normal 1.0 0.0 0.0
outer loop
vertex 88.1 33.0 1.19999999999998
vertex 88.1 13.0 4.49999999999999
vertex 88.1 13.0 1.19999999999997
endloop
endfacet
facet normal 1.0 0.0 0.0
outer loop
vertex 88.1 13.0 4.49999999999999
vertex 88.1 33.0 1.19999999999998
vertex 88.1 33.0 4.49999999999999
endloop
endfacet
facet normal -3.26885125148317e-15 -3.59545726524854e-15 1.0
outer loop
vertex 60.5995730742064 -5.00000000000003 6.0
vertex 55.1 0.0 6.0
vertex 55.1 -5.00000000000002 5.99999999999996
endloop
endfacet
facet normal -3.26885125148317e-15 -3.59545726524854e-15 1.0
outer loop
vertex 55.1 0.0 6.0
vertex 60.5995730742064 -5.00000000000003 6.0
vertex 60.5995730742064 0.0 6.0
endloop
endfacet
facet normal -6.6301556261129e-05 -0.999996960498641 -0.00246466987312692
outer loop
vertex 87.4243863712226 2.49916221177979 4.49999999999999
vertex 81.1 2.50000000000002 4.33012701892238
vertex 87.4179907999478 2.50000000000002 4.33012701892238
endloop
endfacet
facet normal -6.6301556261129e-05 -0.999996960498641 -0.00246466987312692
outer loop
vertex 81.1 2.50000000000002 4.33012701892238
vertex 87.4243863712226 2.49916221177979 4.49999999999999
vertex 81.1 2.50000000000002 4.49999999999999
endloop
endfacet
facet normal -0.987431354776991 0.158048472321866 0.0
outer loop
vertex 86.3999999999999 27.5857753259291 4.49999999999999
vertex 86.2421812324246 26.5997790857452 1.19999999999998
vertex 86.2421812324246 26.5997790857452 4.49999999999999
endloop
endfacet
facet normal -0.987431354776991 0.158048472321866 0.0
outer loop
vertex 86.2421812324246 26.5997790857452 1.19999999999998
vertex 86.3999999999999 27.5857753259291 4.49999999999999
vertex 86.3999999999999 27.5857753259291 1.19999999999998
endloop
endfacet
facet normal 0.999895273754602 -0.0144720946379163 0.0
outer loop
vertex 88.1 13.0 1.19999999999997
vertex 88.0649290169386 10.576901541462 4.49999999999999
vertex 88.0649290169386 10.576901541462 1.19999999999997
endloop
endfacet
facet normal 0.999895273754602 -0.0144720946379163 0.0
outer loop
vertex 88.0649290169386 10.576901541462 4.49999999999999
vertex 88.1 13.0 1.19999999999997
vertex 88.1 13.0 4.49999999999999
endloop
endfacet
facet normal 1.40106167346557e-16 -1.4457550711091e-16 1.0
outer loop
vertex 83.1 -15.5 4.49999999999999
vertex 81.1 -4.99999999999998 4.49999999999999
vertex 81.1 -15.5 4.49999999999999
endloop
endfacet
facet normal 1.40106167346557e-16 -1.4457550711091e-16 1.0
outer loop
vertex 81.1 -4.99999999999998 4.49999999999999
vertex 83.1 -15.5 4.49999999999999
vertex 81.1 -2.49826274752097 4.49999999999999
endloop
endfacet
facet normal 1.40106167346557e-16 -1.4457550711091e-16 1.0
outer loop
vertex 81.1 -2.49826274752097 4.49999999999999
vertex 83.1 -15.5 4.49999999999999
vertex 86.6537552779609 -2.49826274752097 4.49999999999999
endloop
endfacet
facet normal 1.40106167346557e-16 -1.4457550711091e-16 1.0
outer loop
vertex 86.6537552779609 -2.49826274752097 4.49999999999999
vertex 83.1 -15.5 4.49999999999999
vertex 83.8918464368686 -13.209669164937 4.49999999999999
endloop
endfacet
facet normal 1.40106167346557e-16 -1.4457550711091e-16 1.0
outer loop
vertex 86.6537552779609 -2.49826274752097 4.49999999999999
vertex 83.8918464368686 -13.209669164937 4.49999999999999
vertex 84.6170763559832 -10.8973807577432 4.49999999999999
endloop
endfacet
facet normal 1.40106167346557e-16 -1.4457550711091e-16 1.0
outer loop
vertex 86.6537552779609 -2.49826274752097 4.49999999999999
vertex 84.6170763559832 -10.8973807577432 4.49999999999999
vertex 85.275082184308 -8.56507193524295 4.49999999999999
endloop
endfacet
facet normal 1.40106167346557e-16 -1.4457550711091e-16 1.0
outer loop
vertex 86.6537552779609 -2.49826274752097 4.49999999999999
vertex 85.275082184308 -8.56507193524295 4.49999999999999
vertex 85.8653126668712 -6.21469662668579 4.49999999999999
endloop
endfacet
facet normal 1.40106167346557e-16 -1.4457550711091e-16 1.0
outer loop
vertex 86.6537552779609 -2.49826274752097 4.49999999999999
vertex 85.8653126668712 -6.21469662668579 4.49999999999999
vertex 86.280982447089 -4.3301270189222 4.49999999999999
endloop
endfacet
facet normal 1.40106167346557e-16 -1.4457550711091e-16 1.0
outer loop
vertex 86.6537552779609 -2.49826274752097 4.49999999999999
vertex 86.280982447089 -4.3301270189222 4.49999999999999
vertex 86.3872733285874 -3.84822389681066 4.49999999999999
endloop
endfacet
facet normal -0.773172034290446 1.89222604785555e-15 0.634196346087844
outer loop
vertex 75.6004269257935 -5.00000000000004 6.0
vertex 75.4327303550044 -1.55291427061513 5.79555495773441
vertex 74.8280694014208 -4.99999999999998 5.05839060410473
endloop
endfacet
facet normal -0.773172034290446 1.89222604785555e-15 0.634196346087844
outer loop
vertex 75.4327303550044 -1.55291427061513 5.79555495773441
vertex 75.6004269257935 -5.00000000000004 6.0
vertex 75.6004269257935 0.0 6.0
endloop
endfacet
facet normal -0.773172034290446 1.89222604785555e-15 0.634196346087844
outer loop
vertex 74.8280694014208 -4.99999999999998 5.05839060410473
vertex 75.4327303550044 -1.55291427061513 5.79555495773441
vertex 74.9410688868044 -3.00000000000001 5.19615242270663
endloop
endfacet
facet normal -0.773172034290446 1.89222604785555e-15 0.634196346087844
outer loop
vertex 74.8280694014208 -4.99999999999998 5.05839060410473
vertex 74.9410688868044 -3.00000000000001 5.19615242270663
vertex 74.8280694014208 -3.17953469741076 5.05839060410472
endloop
endfacet
facet normal 6.18825311940075e-18 -0.863271966145015 -0.504739053836851
outer loop
vertex 87.4179907999478 2.50000000000002 4.33012701892238
vertex 48.7820092000522 4.33012701892219 1.19999999999997
vertex 87.4179907999478 4.33012701892219 1.19999999999997
endloop
endfacet
facet normal 6.18825311940075e-18 -0.863271966145015 -0.504739053836851
outer loop
vertex 48.7820092000522 4.33012701892219 1.19999999999997
vertex 87.4179907999478 2.50000000000002 4.33012701892238
vertex 55.1 2.50000000000002 4.33012701892238
endloop
endfacet
facet normal 6.18825311940075e-18 -0.863271966145015 -0.504739053836851
outer loop
vertex 55.1 2.50000000000002 4.33012701892238
vertex 87.4179907999478 2.50000000000002 4.33012701892238
vertex 81.1 2.50000000000002 4.33012701892238
endloop
endfacet
facet normal 6.18825311940075e-18 -0.863271966145015 -0.504739053836851
outer loop
vertex 48.7820092000522 2.50000000000002 4.33012701892238
vertex 48.7820092000522 4.33012701892219 1.19999999999997
vertex 55.1 2.50000000000002 4.33012701892238
endloop
endfacet
facet normal -6.06899723200738e-18 -0.789788525942514 0.613379233663442
outer loop
vertex 73.7031030422662 -4.37858983858641 4.06546830351108
vertex 63.7662421905585 -4.99999999999998 3.26533913634431
vertex 72.4337578094415 -4.99999999999998 3.2653391363443
endloop
endfacet
facet normal -6.06899723200738e-18 -0.789788525942514 0.613379233663442
outer loop
vertex 63.7662421905585 -4.99999999999998 3.26533913634431
vertex 73.7031030422662 -4.37858983858641 4.06546830351108
vertex 62.4968969577338 -4.37858983858641 4.06546830351108
endloop
endfacet
facet normal -0.533248358247092 -2.31893788287906e-14 0.845958739198775
outer loop
vertex 73.7031030422662 -4.37858983858641 4.06546830351108
vertex 72.4337578094415 -4.99999999999998 3.2653391363443
vertex 73.7031030422662 -4.99999999999998 4.06546830351106
endloop
endfacet
facet normal -0.141408939684023 0.989951267375036 0.0
outer loop
vertex 78.3258437878817 16.693037893914 4.49999999999999
vertex 81.1 17.0893104190391 1.19999999999997
vertex 78.3258437878817 16.693037893914 1.19999999999997
endloop
endfacet
facet normal -0.141408939684023 0.989951267375036 0.0
outer loop
vertex 81.1 17.0893104190391 1.19999999999997
vertex 78.3258437878817 16.693037893914 4.49999999999999
vertex 81.1 17.0893104190391 4.49999999999999
endloop
endfacet
facet normal -0.851570252596823 0.524240502910814 0.0
outer loop
vertex 84.1677341682146 21.0084363790974 4.49999999999999
vertex 83.644255586821 20.1581037830634 1.19999999999998
vertex 83.644255586821 20.1581037830634 4.49999999999999
endloop
endfacet
facet normal -0.851570252596823 0.524240502910814 0.0
outer loop
vertex 83.644255586821 20.1581037830634 1.19999999999998
vertex 84.1677341682146 21.0084363790974 4.49999999999999
vertex 84.1677341682146 21.0084363790974 1.19999999999998
endloop
endfacet
facet normal 0.537009646434736 0.274164068974792 0.797781112159987
outer loop
vertex 61.3719305985791 3.17953469741075 5.05839060410472
vertex 55.1 17.0893104190391 4.49999999999999
vertex 61.2589311131956 3.0 5.19615242270663
endloop
endfacet
facet normal -4.75750858568859e-17 -0.130526192220051 0.99144486137381
outer loop
vertex 60.7672696449956 -1.55291427061513 5.79555495773441
vertex 75.6004269257935 0.0 6.0
vertex 60.5995730742064 0.0 6.0
endloop
endfacet
facet normal -4.75750858568859e-17 -0.130526192220051 0.99144486137381
outer loop
vertex 75.6004269257935 0.0 6.0
vertex 60.7672696449956 -1.55291427061513 5.79555495773441
vertex 75.4327303550044 -1.55291427061513 5.79555495773441
endloop
endfacet
facet normal 0.537009646434736 0.274164068974792 0.797781112159987
outer loop
vertex 61.3719305985791 3.17953469741075 5.05839060410472
vertex 55.1 17.0893104190391 4.49999999999999
vertex 61.2589311131956 3.0 5.19615242270663
endloop
endfacet
facet normal 0.467742349651542 0.244996782061521 0.849231223591051
outer loop
vertex 62.0045789382431 3.90724350063615 4.49999999999999
vertex 55.1 17.0893104190391 4.49999999999999
vertex 61.3719305985791 3.17953469741075 5.05839060410472
endloop
endfacet
facet normal -0.661735890135538 5.7312650628537e-16 0.749737028368299
outer loop
vertex 74.8280694014208 -4.99999999999998 5.05839060410473
vertex 73.7031030422662 -4.37858983858641 4.06546830351108
vertex 73.7031030422662 -4.99999999999998 4.06546830351106
endloop
endfacet
facet normal -0.661735890135538 5.7312650628537e-16 0.749737028368299
outer loop
vertex 73.7031030422662 -4.37858983858641 4.06546830351108
vertex 74.8280694014208 -4.99999999999998 5.05839060410473
vertex 73.9038367464154 -4.24264068711928 4.24264068711928
endloop
endfacet
facet normal -0.661735890135538 5.7312650628537e-16 0.749737028368299
outer loop
vertex 73.9038367464154 -4.24264068711928 4.24264068711928
vertex 74.8280694014208 -4.99999999999998 5.05839060410473
vertex 74.8280694014208 -3.17953469741076 5.05839060410472
endloop
endfacet
facet normal 0.537009646434755 0.274164068974801 0.797781112159971
outer loop
vertex 61.3719305985791 3.17953469741075 5.05839060410472
vertex 55.1 17.0893104190391 4.49999999999999
vertex 61.2589311131956 3.0 5.19615242270663
endloop
endfacet
facet normal -2.07174404353758e-32 1.8641790497666e-16 -1.0
outer loop
vertex 88.1 33.0 1.19999999999998
vertex 86.3999999999999 27.5857753259291 1.19999999999998
vertex 86.3999999999999 33.0 1.19999999999998
endloop
endfacet
facet normal -2.07174404353758e-32 1.8641790497666e-16 -1.0
outer loop
vertex 86.3999999999999 27.5857753259291 1.19999999999998
vertex 88.1 33.0 1.19999999999998
vertex 87.4179907999478 4.33012701892219 1.19999999999997
endloop
endfacet
facet normal -2.07174404353758e-32 1.8641790497666e-16 -1.0
outer loop
vertex 87.4179907999478 4.33012701892219 1.19999999999997
vertex 88.1 33.0 1.19999999999998
vertex 87.784537415516 5.73882288264226 1.19999999999997
endloop
endfacet
facet normal -2.07174404353758e-32 1.8641790497666e-16 -1.0
outer loop
vertex 87.784537415516 5.73882288264226 1.19999999999997
vertex 88.1 33.0 1.19999999999998
vertex 87.9597454490351 8.15583307265224 1.19999999999997
endloop
endfacet
facet normal -2.07174404353758e-32 1.8641790497666e-16 -1.0
outer loop
vertex 87.9597454490351 8.15583307265224 1.19999999999997
vertex 88.1 33.0 1.19999999999998
vertex 88.0649290169386 10.576901541462 1.19999999999997
endloop
endfacet
facet normal -2.07174404353758e-32 1.8641790497666e-16 -1.0
outer loop
vertex 88.0649290169386 10.576901541462 1.19999999999997
vertex 88.1 33.0 1.19999999999998
vertex 88.1 13.0 1.19999999999997
endloop
endfacet
facet normal -2.07174404353758e-32 1.8641790497666e-16 -1.0
outer loop
vertex 48.1 33.0 1.19999999999998
vertex 48.1350709830613 10.576901541462 1.19999999999997
vertex 48.1 13.0 1.19999999999997
endloop
endfacet
facet normal -2.07174404353758e-32 1.8641790497666e-16 -1.0
outer loop
vertex 48.1350709830613 10.576901541462 1.19999999999997
vertex 48.1 33.0 1.19999999999998
vertex 49.8 33.0 1.19999999999998
endloop
endfacet
facet normal -2.07174404353758e-32 1.8641790497666e-16 -1.0
outer loop
vertex 48.1350709830613 10.576901541462 1.19999999999997
vertex 49.8 33.0 1.19999999999998
vertex 48.2402545509649 8.15583307265224 1.19999999999997
endloop
endfacet
facet normal -2.07174404353758e-32 1.8641790497666e-16 -1.0
outer loop
vertex 48.2402545509649 8.15583307265224 1.19999999999997
vertex 49.8 33.0 1.19999999999998
vertex 48.415462584484 5.73882288264226 1.19999999999997
endloop
endfacet
facet normal -2.07174404353758e-32 1.8641790497666e-16 -1.0
outer loop
vertex 48.415462584484 5.73882288264226 1.19999999999997
vertex 49.8 33.0 1.19999999999998
vertex 48.7820092000522 4.33012701892219 1.19999999999997
endloop
endfacet
facet normal -2.07174404353758e-32 1.8641790497666e-16 -1.0
outer loop
vertex 48.7820092000522 4.33012701892219 1.19999999999997
vertex 49.8 33.0 1.19999999999998
vertex 49.8 27.5857753259291 1.19999999999998
endloop
endfacet
facet normal -2.07174404353758e-32 1.8641790497666e-16 -1.0
outer loop
vertex 48.7820092000522 4.33012701892219 1.19999999999997
vertex 49.8 27.5857753259291 1.19999999999998
vertex 49.9578187675754 26.5997790857452 1.19999999999998
endloop
endfacet
facet normal -2.07174404353758e-32 1.8641790497666e-16 -1.0
outer loop
vertex 48.7820092000522 4.33012701892219 1.19999999999997
vertex 49.9578187675754 26.5997790857452 1.19999999999998
vertex 50.1707316400974 25.6241954359385 1.19999999999998
endloop
endfacet
facet normal -2.07174404353758e-32 1.8641790497666e-16 -1.0
outer loop
vertex 48.7820092000522 4.33012701892219 1.19999999999997
vertex 50.1707316400974 25.6241954359385 1.19999999999998
vertex 50.4380673159194 24.6621003338366 1.19999999999998
endloop
endfacet
facet normal -2.07174404353758e-32 1.8641790497666e-16 -1.0
outer loop
vertex 48.7820092000522 4.33012701892219 1.19999999999997
vertex 50.4380673159194 24.6621003338366 1.19999999999998
vertex 50.7589829015273 23.716527208177 1.19999999999998
endloop
endfacet
facet normal -2.07174404353758e-32 1.8641790497666e-16 -1.0
outer loop
vertex 48.7820092000522 4.33012701892219 1.19999999999997
vertex 50.7589829015273 23.716527208177 1.19999999999998
vertex 51.1324665691324 22.7904573948865 1.19999999999998
endloop
endfacet
facet normal -2.07174404353758e-32 1.8641790497666e-16 -1.0
outer loop
vertex 48.7820092000522 4.33012701892219 1.19999999999997
vertex 51.1324665691324 22.7904573948865 1.19999999999998
vertex 51.5573407469044 21.8868107371057 1.19999999999998
endloop
endfacet
facet normal -2.07174404353758e-32 1.8641790497666e-16 -1.0
outer loop
vertex 48.7820092000522 4.33012701892219 1.19999999999997
vertex 51.5573407469044 21.8868107371057 1.19999999999998
vertex 52.0322658317854 21.0084363790974 1.19999999999998
endloop
endfacet
facet normal -2.07174404353758e-32 1.8641790497666e-16 -1.0
outer loop
vertex 48.7820092000522 4.33012701892219 1.19999999999997
vertex 52.0322658317854 21.0084363790974 1.19999999999998
vertex 52.5557444131789 20.1581037830634 1.19999999999998
endloop
endfacet
facet normal -2.07174404353758e-32 1.8641790497666e-16 -1.0
outer loop
vertex 48.7820092000522 4.33012701892219 1.19999999999997
vertex 52.5557444131789 20.1581037830634 1.19999999999998
vertex 53.1261259941968 19.338493997195 1.19999999999998
endloop
endfacet
facet normal -2.07174404353758e-32 1.8641790497666e-16 -1.0
outer loop
vertex 48.7820092000522 4.33012701892219 1.19999999999997
vertex 53.1261259941968 19.338493997195 1.19999999999998
vertex 53.7416121955775 18.5521912024869 1.19999999999998
endloop
endfacet
facet normal -2.07174404353758e-32 1.8641790497666e-16 -1.0
outer loop
vertex 48.7820092000522 4.33012701892219 1.19999999999997
vertex 53.7416121955775 18.5521912024869 1.19999999999998
vertex 54.4002624258693 17.8016745649683 1.19999999999998
endloop
endfacet
facet normal -2.07174404353758e-32 1.8641790497666e-16 -1.0
outer loop
vertex 48.7820092000522 4.33012701892219 1.19999999999997
vertex 54.4002624258693 17.8016745649683 1.19999999999998
vertex 55.1 17.0893104190391 1.19999999999997
endloop
endfacet
facet normal -2.07174404353758e-32 1.8641790497666e-16 -1.0
outer loop
vertex 48.7820092000522 4.33012701892219 1.19999999999997
vertex 55.1 17.0893104190391 1.19999999999997
vertex 87.4179907999478 4.33012701892219 1.19999999999997
endloop
endfacet
facet normal -2.07174404353758e-32 1.8641790497666e-16 -1.0
outer loop
vertex 87.4179907999478 4.33012701892219 1.19999999999997
vertex 55.1 17.0893104190391 1.19999999999997
vertex 57.8741562121183 16.693037893914 1.19999999999997
endloop
endfacet
facet normal -2.07174404353758e-32 1.8641790497666e-16 -1.0
outer loop
vertex 87.4179907999478 4.33012701892219 1.19999999999997
vertex 57.8741562121183 16.693037893914 1.19999999999997
vertex 60.1 16.3999999999999 1.19999999999997
endloop
endfacet
facet normal -2.07174404353758e-32 1.8641790497666e-16 -1.0
outer loop
vertex 87.4179907999478 4.33012701892219 1.19999999999997
vertex 60.1 16.3999999999999 1.19999999999997
vertex 62.3258437878817 16.693037893914 1.19999999999997
endloop
endfacet
facet normal -2.07174404353758e-32 1.8641790497666e-16 -1.0
outer loop
vertex 87.4179907999478 4.33012701892219 1.19999999999997
vertex 62.3258437878817 16.693037893914 1.19999999999997
vertex 64.4 17.5521815274538 1.19999999999997
endloop
endfacet
facet normal -2.07174404353758e-32 1.8641790497666e-16 -1.0
outer loop
vertex 87.4179907999478 4.33012701892219 1.19999999999997
vertex 64.4 17.5521815274538 1.19999999999997
vertex 66.1811183182043 18.9188816817957 1.19999999999997
endloop
endfacet
facet normal -2.07174404353758e-32 1.8641790497666e-16 -1.0
outer loop
vertex 87.4179907999478 4.33012701892219 1.19999999999997
vertex 66.1811183182043 18.9188816817957 1.19999999999997
vertex 67.5478184725462 20.7 1.19999999999997
endloop
endfacet
facet normal -2.07174404353758e-32 1.8641790497666e-16 -1.0
outer loop
vertex 87.4179907999478 4.33012701892219 1.19999999999997
vertex 67.5478184725462 20.7 1.19999999999997
vertex 70.0188816817957 18.9188816817957 1.19999999999997
endloop
endfacet
facet normal -2.07174404353758e-32 1.8641790497666e-16 -1.0
outer loop
vertex 70.0188816817957 18.9188816817957 1.19999999999997
vertex 67.5478184725462 20.7 1.19999999999997
vertex 68.6521815274538 20.7 1.19999999999997
endloop
endfacet
facet normal -2.07174404353758e-32 1.8641790497666e-16 -1.0
outer loop
vertex 68.6521815274538 20.7 1.19999999999997
vertex 67.5478184725462 20.7 1.19999999999997
vertex 68.1 22.0330841324709 1.19999999999997
endloop
endfacet
facet normal -2.07174404353758e-32 1.8641790497666e-16 -1.0
outer loop
vertex 87.4179907999478 4.33012701892219 1.19999999999997
vertex 70.0188816817957 18.9188816817957 1.19999999999997
vertex 71.8 17.5521815274538 1.19999999999997
endloop
endfacet
facet normal -2.07174404353758e-32 1.8641790497666e-16 -1.0
outer loop
vertex 87.4179907999478 4.33012701892219 1.19999999999997
vertex 71.8 17.5521815274538 1.19999999999997
vertex 73.8741562121183 16.693037893914 1.19999999999997
endloop
endfacet
facet normal -2.07174404353758e-32 1.8641790497666e-16 -1.0
outer loop
vertex 87.4179907999478 4.33012701892219 1.19999999999997
vertex 73.8741562121183 16.693037893914 1.19999999999997
vertex 76.1 16.3999999999999 1.19999999999997
endloop
endfacet
facet normal -2.07174404353758e-32 1.8641790497666e-16 -1.0
outer loop
vertex 87.4179907999478 4.33012701892219 1.19999999999997
vertex 76.1 16.3999999999999 1.19999999999997
vertex 78.3258437878817 16.693037893914 1.19999999999997
endloop
endfacet
facet normal -2.07174404353758e-32 1.8641790497666e-16 -1.0
outer loop
vertex 87.4179907999478 4.33012701892219 1.19999999999997
vertex 78.3258437878817 16.693037893914 1.19999999999997
vertex 81.1 17.0893104190391 1.19999999999997
endloop
endfacet
facet normal -2.07174404353758e-32 1.8641790497666e-16 -1.0
outer loop
vertex 87.4179907999478 4.33012701892219 1.19999999999997
vertex 81.1 17.0893104190391 1.19999999999997
vertex 81.7997375741307 17.8016745649683 1.19999999999998
endloop
endfacet
facet normal -2.07174404353758e-32 1.8641790497666e-16 -1.0
outer loop
vertex 87.4179907999478 4.33012701892219 1.19999999999997
vertex 81.7997375741307 17.8016745649683 1.19999999999998
vertex 82.4583878044225 18.5521912024869 1.19999999999998
endloop
endfacet
facet normal -2.07174404353758e-32 1.8641790497666e-16 -1.0
outer loop
vertex 87.4179907999478 4.33012701892219 1.19999999999997
vertex 82.4583878044225 18.5521912024869 1.19999999999998
vertex 83.0738740058031 19.338493997195 1.19999999999998
endloop
endfacet
facet normal -2.07174404353758e-32 1.8641790497666e-16 -1.0
outer loop
vertex 87.4179907999478 4.33012701892219 1.19999999999997
vertex 83.0738740058031 19.338493997195 1.19999999999998
vertex 83.644255586821 20.1581037830634 1.19999999999998
endloop
endfacet
facet normal -2.07174404353758e-32 1.8641790497666e-16 -1.0
outer loop
vertex 87.4179907999478 4.33012701892219 1.19999999999997
vertex 83.644255586821 20.1581037830634 1.19999999999998
vertex 84.1677341682146 21.0084363790974 1.19999999999998
endloop
endfacet
facet normal -2.07174404353758e-32 1.8641790497666e-16 -1.0
outer loop
vertex 87.4179907999478 4.33012701892219 1.19999999999997
vertex 84.1677341682146 21.0084363790974 1.19999999999998
vertex 84.6426592530956 21.8868107371057 1.19999999999998
endloop
endfacet
facet normal -2.07174404353758e-32 1.8641790497666e-16 -1.0
outer loop
vertex 87.4179907999478 4.33012701892219 1.19999999999997
vertex 84.6426592530956 21.8868107371057 1.19999999999998
vertex 85.0675334308675 22.7904573948865 1.19999999999998
endloop
endfacet
facet normal -2.07174404353758e-32 1.8641790497666e-16 -1.0
outer loop
vertex 87.4179907999478 4.33012701892219 1.19999999999997
vertex 85.0675334308675 22.7904573948865 1.19999999999998
vertex 85.4410170984726 23.716527208177 1.19999999999998
endloop
endfacet
facet normal -2.07174404353758e-32 1.8641790497666e-16 -1.0
outer loop
vertex 87.4179907999478 4.33012701892219 1.19999999999997
vertex 85.4410170984726 23.716527208177 1.19999999999998
vertex 85.7619326840806 24.6621003338366 1.19999999999998
endloop
endfacet
facet normal -2.07174404353758e-32 1.8641790497666e-16 -1.0
outer loop
vertex 87.4179907999478 4.33012701892219 1.19999999999997
vertex 85.7619326840806 24.6621003338366 1.19999999999998
vertex 86.0292683599026 25.6241954359385 1.19999999999998
endloop
endfacet
facet normal -2.07174404353758e-32 1.8641790497666e-16 -1.0
outer loop
vertex 87.4179907999478 4.33012701892219 1.19999999999997
vertex 86.0292683599026 25.6241954359385 1.19999999999998
vertex 86.2421812324246 26.5997790857452 1.19999999999998
endloop
endfacet
facet normal -2.07174404353758e-32 1.8641790497666e-16 -1.0
outer loop
vertex 87.4179907999478 4.33012701892219 1.19999999999997
vertex 86.2421812324246 26.5997790857452 1.19999999999998
vertex 86.3999999999999 27.5857753259291 1.19999999999998
endloop
endfacet
facet normal 0.793353340291238 0.608761429008717 0.0
outer loop
vertex 68.6521815274538 20.7 1.19999999999997
vertex 70.0188816817957 18.9188816817957 4.49999999999999
vertex 70.0188816817957 18.9188816817957 1.19999999999997
endloop
endfacet
facet normal 0.793353340291238 0.608761429008717 0.0
outer loop
vertex 70.0188816817957 18.9188816817957 4.49999999999999
vertex 68.6521815274538 20.7 1.19999999999997
vertex 68.6521815274538 20.7 4.49999999999999
endloop
endfacet
facet normal 0.13052619222008 0.991444861373807 0.0
outer loop
vertex 73.8741562121183 16.693037893914 4.49999999999999
vertex 76.1 16.3999999999999 1.19999999999997
vertex 73.8741562121183 16.693037893914 1.19999999999997
endloop
endfacet
facet normal 0.13052619222008 0.991444861373807 0.0
outer loop
vertex 76.1 16.3999999999999 1.19999999999997
vertex 73.8741562121183 16.693037893914 4.49999999999999
vertex 76.1 16.3999999999999 4.49999999999999
endloop
endfacet
facet normal -0.927417705147663 0.374027271971766 0.0
outer loop
vertex 85.4410170984726 23.716527208177 4.49999999999999
vertex 85.0675334308675 22.7904573948865 1.19999999999998
vertex 85.0675334308675 22.7904573948865 4.49999999999999
endloop
endfacet
facet normal -0.927417705147663 0.374027271971766 0.0
outer loop
vertex 85.0675334308675 22.7904573948865 1.19999999999998
vertex 85.4410170984726 23.716527208177 4.49999999999999
vertex 85.4410170984726 23.716527208177 1.19999999999998
endloop
endfacet
facet normal 0.954169337099784 -0.299267231982653 0.0
outer loop
vertex 84.6170763559832 -10.8973807577432 1.19999999999997
vertex 83.8918464368686 -13.209669164937 4.49999999999999
vertex 83.8918464368686 -13.209669164937 1.19999999999997
endloop
endfacet
facet normal 0.954169337099784 -0.299267231982653 0.0
outer loop
vertex 83.8918464368686 -13.209669164937 4.49999999999999
vertex 84.6170763559832 -10.8973807577432 1.19999999999997
vertex 84.6170763559832 -10.8973807577432 4.49999999999999
endloop
endfacet
facet normal -0.100838278807046 0.119149400590289 0.98774240663556
outer loop
vertex 81.1 17.0893104190391 4.49999999999999
vertex 75.4327303550044 1.55291427061512 5.79555495773441
vertex 75.6004269257935 0.0 6.0
endloop
endfacet
facet normal -0.414177015538415 0.224632933341076 0.882041634537891
outer loop
vertex 81.1 17.0893104190391 4.49999999999999
vertex 74.9410688868043 3.0 5.19615242270663
vertex 75.4327303550044 1.55291427061512 5.79555495773441
endloop
endfacet
facet normal -0.945108511478193 -0.32675663961345 2.77043636365548e-16
outer loop
vertex 53.1 -15.5 4.49999999999999
vertex 52.3081535631313 -13.209669164937 1.19999999999997
vertex 53.1 -15.5 1.19999999999997
endloop
endfacet
facet normal -0.945108511478193 -0.32675663961345 2.77043636365548e-16
outer loop
vertex 52.3081535631313 -13.209669164937 1.19999999999997
vertex 53.1 -15.5 4.49999999999999
vertex 52.3081535631313 -13.209669164937 4.49999999999999
endloop
endfacet
facet normal -0.976528580476675 -0.215387862964025 4.0568599838805e-18
outer loop
vertex 49.919017552911 -4.33012701892219 4.49999999999999
vertex 50.3346873331288 -6.21469662668579 1.19999999999997
vertex 50.3346873331288 -6.21469662668579 4.49999999999999
endloop
endfacet
facet normal -0.976528580476675 -0.215387862964025 4.0568599838805e-18
outer loop
vertex 50.3346873331288 -6.21469662668579 1.19999999999997
vertex 49.919017552911 -4.33012701892219 4.49999999999999
vertex 49.919017552911 -4.33012701892219 1.19999999999997
endloop
endfacet
facet normal 0.787447256085623 0.616382039715 0.0
outer loop
vertex 53.1261259941968 19.338493997195 1.19999999999998
vertex 53.7416121955775 18.5521912024869 4.49999999999999
vertex 53.7416121955775 18.5521912024869 1.19999999999998
endloop
endfacet
facet normal 0.787447256085623 0.616382039715 0.0
outer loop
vertex 53.7416121955775 18.5521912024869 4.49999999999999
vertex 53.1261259941968 19.338493997195 1.19999999999998
vertex 53.1261259941968 19.338493997195 4.49999999999999
endloop
endfacet
facet normal 0.904961912801779 0.425492580873209 0.0
outer loop
vertex 51.1324665691324 22.7904573948865 1.19999999999998
vertex 51.5573407469044 21.8868107371057 4.49999999999999
vertex 51.5573407469044 21.8868107371057 1.19999999999998
endloop
endfacet
facet normal 0.904961912801779 0.425492580873209 0.0
outer loop
vertex 51.5573407469044 21.8868107371057 4.49999999999999
vertex 51.1324665691324 22.7904573948865 1.19999999999998
vertex 51.1324665691324 22.7904573948865 4.49999999999999
endloop
endfacet
facet normal -0.96243079200392 -0.271527108412231 0.0
outer loop
vertex 50.9249178156919 -8.56507193524295 4.49999999999999
vertex 51.5829236440167 -10.8973807577432 1.19999999999997
vertex 51.5829236440167 -10.8973807577432 4.49999999999999
endloop
endfacet
facet normal -0.96243079200392 -0.271527108412231 0.0
outer loop
vertex 51.5829236440167 -10.8973807577432 1.19999999999997
vertex 50.9249178156919 -8.56507193524295 4.49999999999999
vertex 50.9249178156919 -8.56507193524295 1.19999999999997
endloop
endfacet
facet normal -0.988682185500764 -0.129512478709331 -0.0757235361826079
outer loop
vertex 48.7820092000522 4.33012701892219 1.19999999999997
vertex 48.7820092000522 2.50000000000002 4.33012701892238
vertex 48.660548300269 3.32789586061524 4.49999999999999
endloop
endfacet
facet normal -1.0 1.2602052371324e-15 1.00531311147651e-14
outer loop
vertex 55.1 0.0 6.0
vertex 55.1 -4.99999999999998 4.49999999999999
vertex 55.1 -5.00000000000002 5.99999999999996
endloop
endfacet
facet normal -1.0 1.2602052371324e-15 1.00531311147651e-14
outer loop
vertex 55.1 -4.99999999999998 4.49999999999999
vertex 55.1 0.0 6.0
vertex 55.1 -2.49826274752097 4.49999999999999
endloop
endfacet
facet normal -1.0 1.2602052371324e-15 1.00531311147651e-14
outer loop
vertex 55.1 17.0893104190391 4.49999999999999
vertex 55.1 2.50000000000002 4.49999999999999
vertex 55.1 0.0 6.0
endloop
endfacet
facet normal -1.0 1.2602052371324e-15 1.00531311147651e-14
outer loop
vertex 55.1 -2.49826274752097 4.49999999999999
vertex 55.1 2.50000000000002 4.33012701892238
vertex 55.1 -2.49999999999998 4.33012701892238
endloop
endfacet
facet normal -1.0 1.2602052371324e-15 1.00531311147651e-14
outer loop
vertex 55.1 2.50000000000002 4.33012701892238
vertex 55.1 -2.49826274752097 4.49999999999999
vertex 55.1 0.0 6.0
endloop
endfacet
facet normal -1.0 1.2602052371324e-15 1.00531311147651e-14
outer loop
vertex 55.1 2.50000000000002 4.33012701892238
vertex 55.1 0.0 6.0
vertex 55.1 2.50000000000002 4.49999999999999
endloop
endfacet
facet normal 0.751609012250905 0.659608893741753 0.0
outer loop
vertex 53.7416121955775 18.5521912024869 1.19999999999998
vertex 54.4002624258693 17.8016745649683 4.49999999999999
vertex 54.4002624258693 17.8016745649683 1.19999999999998
endloop
endfacet
facet normal 0.751609012250905 0.659608893741753 0.0
outer loop
vertex 54.4002624258693 17.8016745649683 4.49999999999999
vertex 53.7416121955775 18.5521912024869 1.19999999999998
vertex 53.7416121955775 18.5521912024869 4.49999999999999
endloop
endfacet
facet normal 0.946949404529825 0.321382677287699 0.0
outer loop
vertex 50.4380673159194 24.6621003338366 1.19999999999998
vertex 50.7589829015273 23.716527208177 4.49999999999999
vertex 50.7589829015273 23.716527208177 1.19999999999998
endloop
endfacet
facet normal 0.946949404529825 0.321382677287699 0.0
outer loop
vertex 50.7589829015273 23.716527208177 4.49999999999999
vertex 50.4380673159194 24.6621003338366 1.19999999999998
vertex 50.4380673159194 24.6621003338366 4.49999999999999
endloop
endfacet
facet normal 1.0 0.0 0.0
outer loop
vertex 49.8 33.0 1.19999999999998
vertex 49.8 27.5857753259291 4.49999999999999
vertex 49.8 27.5857753259291 1.19999999999998
endloop
endfacet
facet normal 1.0 0.0 0.0
outer loop
vertex 49.8 27.5857753259291 4.49999999999999
vertex 49.8 33.0 1.19999999999998
vertex 49.8 33.0 4.49999999999999
endloop
endfacet
facet normal -0.979680082402345 -0.200553717052649 -0.00226775671099036
outer loop
vertex 49.5371202891029 -2.49999999999998 4.33012701892238
vertex 49.919017552911 -4.33012701892219 1.19999999999997
vertex 49.8127266714125 -3.84822389681066 4.49999999999999
endloop
endfacet
facet normal 0.977003608905525 0.213222766574259 0.0
outer loop
vertex 49.9578187675754 26.5997790857452 1.19999999999998
vertex 50.1707316400974 25.6241954359385 4.49999999999999
vertex 50.1707316400974 25.6241954359385 1.19999999999998
endloop
endfacet
facet normal 0.977003608905525 0.213222766574259 0.0
outer loop
vertex 50.1707316400974 25.6241954359385 4.49999999999999
vertex 49.9578187675754 26.5997790857452 1.19999999999998
vertex 49.9578187675754 26.5997790857452 4.49999999999999
endloop
endfacet
facet normal -0.992625110471965 -0.100906511679311 -0.0671808451958782
outer loop
vertex 48.415462584484 5.73882288264226 4.49999999999999
vertex 48.7820092000522 4.33012701892219 1.19999999999997
vertex 48.660548300269 3.32789586061524 4.49999999999999
endloop
endfacet
facet normal -6.14702463590563e-17 4.87169638747687e-17 1.0
outer loop
vertex 48.7756136287774 2.49916221177979 4.49999999999999
vertex 49.9578187675754 26.5997790857452 4.49999999999999
vertex 49.8 27.5857753259291 4.49999999999999
endloop
endfacet
facet normal -6.14702463590563e-17 4.87169638747687e-17 1.0
outer loop
vertex 49.9578187675754 26.5997790857452 4.49999999999999
vertex 48.7756136287774 2.49916221177979 4.49999999999999
vertex 55.1 2.50000000000002 4.49999999999999
endloop
endfacet
facet normal -6.14702463590563e-17 4.87169638747687e-17 1.0
outer loop
vertex 49.9578187675754 26.5997790857452 4.49999999999999
vertex 55.1 2.50000000000002 4.49999999999999
vertex 50.1707316400974 25.6241954359385 4.49999999999999
endloop
endfacet
facet normal -6.14702463590563e-17 4.87169638747687e-17 1.0
outer loop
vertex 50.1707316400974 25.6241954359385 4.49999999999999
vertex 55.1 2.50000000000002 4.49999999999999
vertex 50.4380673159194 24.6621003338366 4.49999999999999
endloop
endfacet
facet normal -6.14702463590563e-17 4.87169638747687e-17 1.0
outer loop
vertex 50.4380673159194 24.6621003338366 4.49999999999999
vertex 55.1 2.50000000000002 4.49999999999999
vertex 50.7589829015273 23.716527208177 4.49999999999999
endloop
endfacet
facet normal -6.14702463590563e-17 4.87169638747687e-17 1.0
outer loop
vertex 50.7589829015273 23.716527208177 4.49999999999999
vertex 55.1 2.50000000000002 4.49999999999999
vertex 51.1324665691324 22.7904573948865 4.49999999999999
endloop
endfacet
facet normal -6.14702463590563e-17 4.87169638747687e-17 1.0
outer loop
vertex 51.1324665691324 22.7904573948865 4.49999999999999
vertex 55.1 2.50000000000002 4.49999999999999
vertex 51.5573407469044 21.8868107371057 4.49999999999999
endloop
endfacet
facet normal -6.14702463590563e-17 4.87169638747687e-17 1.0
outer loop
vertex 51.5573407469044 21.8868107371057 4.49999999999999
vertex 55.1 2.50000000000002 4.49999999999999
vertex 52.0322658317854 21.0084363790974 4.49999999999999
endloop
endfacet
facet normal -6.14702463590563e-17 4.87169638747687e-17 1.0
outer loop
vertex 52.0322658317854 21.0084363790974 4.49999999999999
vertex 55.1 2.50000000000002 4.49999999999999
vertex 52.5557444131789 20.1581037830634 4.49999999999999
endloop
endfacet
facet normal -6.14702463590563e-17 4.87169638747687e-17 1.0
outer loop
vertex 52.5557444131789 20.1581037830634 4.49999999999999
vertex 55.1 2.50000000000002 4.49999999999999
vertex 53.1261259941968 19.338493997195 4.49999999999999
endloop
endfacet
facet normal -6.14702463590563e-17 4.87169638747687e-17 1.0
outer loop
vertex 53.1261259941968 19.338493997195 4.49999999999999
vertex 55.1 2.50000000000002 4.49999999999999
vertex 53.7416121955775 18.5521912024869 4.49999999999999
endloop
endfacet
facet normal -6.14702463590563e-17 4.87169638747687e-17 1.0
outer loop
vertex 53.7416121955775 18.5521912024869 4.49999999999999
vertex 55.1 2.50000000000002 4.49999999999999
vertex 54.4002624258693 17.8016745649683 4.49999999999999
endloop
endfacet
facet normal -6.14702463590563e-17 4.87169638747687e-17 1.0
outer loop
vertex 54.4002624258693 17.8016745649683 4.49999999999999
vertex 55.1 2.50000000000002 4.49999999999999
vertex 55.1 17.0893104190391 4.49999999999999
endloop
endfacet
facet normal -6.14702463590563e-17 4.87169638747687e-17 1.0
outer loop
vertex 48.1350709830613 10.576901541462 4.49999999999999
vertex 48.1 33.0 4.49999999999999
vertex 48.1 13.0 4.49999999999999
endloop
endfacet
facet normal -6.14702463590563e-17 4.87169638747687e-17 1.0
outer loop
vertex 48.1 33.0 4.49999999999999
vertex 48.1350709830613 10.576901541462 4.49999999999999
vertex 49.8 33.0 4.49999999999999
endloop
endfacet
facet normal -6.14702463590563e-17 4.87169638747687e-17 1.0
outer loop
vertex 49.8 33.0 4.49999999999999
vertex 48.1350709830613 10.576901541462 4.49999999999999
vertex 48.2402545509649 8.15583307265224 4.49999999999999
endloop
endfacet
facet normal -6.14702463590563e-17 4.87169638747687e-17 1.0
outer loop
vertex 49.8 33.0 4.49999999999999
vertex 48.2402545509649 8.15583307265224 4.49999999999999
vertex 48.415462584484 5.73882288264226 4.49999999999999
endloop
endfacet
facet normal -6.14702463590563e-17 4.87169638747687e-17 1.0
outer loop
vertex 49.8 33.0 4.49999999999999
vertex 48.415462584484 5.73882288264226 4.49999999999999
vertex 48.660548300269 3.32789586061524 4.49999999999999
endloop
endfacet
facet normal -6.14702463590563e-17 4.87169638747687e-17 1.0
outer loop
vertex 49.8 33.0 4.49999999999999
vertex 48.660548300269 3.32789586061524 4.49999999999999
vertex 48.7756136287774 2.49916221177979 4.49999999999999
endloop
endfacet
facet normal -6.14702463590563e-17 4.87169638747687e-17 1.0
outer loop
vertex 49.8 33.0 4.49999999999999
vertex 48.7756136287774 2.49916221177979 4.49999999999999
vertex 49.8 27.5857753259291 4.49999999999999
endloop
endfacet
facet normal 0.0 1.0 0.0
outer loop
vertex 48.1 33.0 4.49999999999999
vertex 49.8 33.0 1.19999999999998
vertex 48.1 33.0 1.19999999999998
endloop
endfacet
facet normal 0.0 1.0 0.0
outer loop
vertex 49.8 33.0 1.19999999999998
vertex 48.1 33.0 4.49999999999999
vertex 49.8 33.0 4.49999999999999
endloop
endfacet
facet normal 0.130526192220081 0.991444861373807 0.0
outer loop
vertex 57.8741562121183 16.693037893914 4.49999999999999
vertex 60.1 16.3999999999999 1.19999999999997
vertex 57.8741562121183 16.693037893914 1.19999999999997
endloop
endfacet
facet normal 0.130526192220081 0.991444861373807 0.0
outer loop
vertex 60.1 16.3999999999999 1.19999999999997
vertex 57.8741562121183 16.693037893914 4.49999999999999
vertex 60.1 16.3999999999999 4.49999999999999
endloop
endfacet
facet normal 0.879652829272233 0.475616336928575 0.0
outer loop
vertex 51.5573407469044 21.8868107371057 1.19999999999998
vertex 52.0322658317854 21.0084363790974 4.49999999999999
vertex 52.0322658317854 21.0084363790974 1.19999999999998
endloop
endfacet
facet normal 0.879652829272233 0.475616336928575 0.0
outer loop
vertex 52.0322658317854 21.0084363790974 4.49999999999999
vertex 51.5573407469044 21.8868107371057 1.19999999999998
vertex 51.5573407469044 21.8868107371057 4.49999999999999
endloop
endfacet
facet normal -0.997382940462911 -0.0722998621959794 -8.33629298646219e-19
outer loop
vertex 48.2402545509649 8.15583307265224 4.49999999999999
vertex 48.415462584484 5.73882288264226 1.19999999999997
vertex 48.415462584484 5.73882288264226 4.49999999999999
endloop
endfacet
facet normal -0.997382940462911 -0.0722998621959794 -8.33629298646219e-19
outer loop
vertex 48.415462584484 5.73882288264226 1.19999999999997
vertex 48.2402545509649 8.15583307265224 4.49999999999999
vertex 48.2402545509649 8.15583307265224 1.19999999999997
endloop
endfacet
facet normal -0.976528580476678 -0.215387862964014 0.0
outer loop
vertex 49.8127266714125 -3.84822389681066 4.49999999999999
vertex 49.919017552911 -4.33012701892219 1.19999999999997
vertex 49.919017552911 -4.33012701892219 4.49999999999999
endloop
endfacet
facet normal -0.999057595397864 -0.0434041596835938 0.0
outer loop
vertex 48.1350709830613 10.576901541462 4.49999999999999
vertex 48.2402545509649 8.15583307265224 1.19999999999997
vertex 48.2402545509649 8.15583307265224 4.49999999999999
endloop
endfacet
facet normal -0.999057595397864 -0.0434041596835938 0.0
outer loop
vertex 48.2402545509649 8.15583307265224 1.19999999999997
vertex 48.1350709830613 10.576901541462 4.49999999999999
vertex 48.1350709830613 10.576901541462 1.19999999999997
endloop
endfacet
facet normal -0.989785000402674 -0.137426465528529 -0.0379423187248134
outer loop
vertex 48.660548300269 3.32789586061524 4.49999999999999
vertex 48.7820092000522 2.50000000000002 4.33012701892238
vertex 48.7756136287774 2.49916221177979 4.49999999999999
endloop
endfacet
facet normal -0.92387953251128 0.382683432365107 -1.68693406372851e-18
outer loop
vertex 68.1 22.0330841324709 4.49999999999999
vertex 67.5478184725462 20.7 1.19999999999997
vertex 67.5478184725462 20.7 4.49999999999999
endloop
endfacet
facet normal -0.92387953251128 0.382683432365107 -1.68693406372851e-18
outer loop
vertex 67.5478184725462 20.7 1.19999999999997
vertex 68.1 22.0330841324709 4.49999999999999
vertex 68.1 22.0330841324709 1.19999999999997
endloop
endfacet
facet normal -3.76226955496759e-17 -0.793353340291236 0.60876142900872
outer loop
vertex 73.7031030422662 -4.37858983858641 4.06546830351108
vertex 62.2961632535846 -4.24264068711928 4.24264068711928
vertex 62.4968969577338 -4.37858983858641 4.06546830351108
endloop
endfacet
facet normal -3.76226955496759e-17 -0.793353340291236 0.60876142900872
outer loop
vertex 62.2961632535846 -4.24264068711928 4.24264068711928
vertex 73.7031030422662 -4.37858983858641 4.06546830351108
vertex 73.9038367464154 -4.24264068711928 4.24264068711928
endloop
endfacet
facet normal 1.0 0.0 0.0
outer loop
vertex 55.1 -4.99999999999998 1.19999999999997
vertex 55.1 -15.5 4.49999999999999
vertex 55.1 -15.5 1.19999999999997
endloop
endfacet
facet normal 1.0 0.0 0.0
outer loop
vertex 55.1 -15.5 4.49999999999999
vertex 55.1 -4.99999999999998 1.19999999999997
vertex 55.1 -4.99999999999998 4.49999999999999
endloop
endfacet
facet normal 0.963495428659698 0.267724782102562 0.0
outer loop
vertex 50.1707316400974 25.6241954359385 1.19999999999998
vertex 50.4380673159194 24.6621003338366 4.49999999999999
vertex 50.4380673159194 24.6621003338366 1.19999999999998
endloop
endfacet
facet normal 0.963495428659698 0.267724782102562 0.0
outer loop
vertex 50.4380673159194 24.6621003338366 4.49999999999999
vertex 50.1707316400974 25.6241954359385 1.19999999999998
vertex 50.1707316400974 25.6241954359385 4.49999999999999
endloop
endfacet
facet normal -0.608761429008737 0.793353340291223 1.56407273631494e-17
outer loop
vertex 64.4 17.5521815274538 4.49999999999999
vertex 66.1811183182043 18.9188816817957 1.19999999999997
vertex 64.4 17.5521815274538 1.19999999999997
endloop
endfacet
facet normal -0.608761429008737 0.793353340291223 1.56407273631494e-17
outer loop
vertex 66.1811183182043 18.9188816817957 1.19999999999997
vertex 64.4 17.5521815274538 4.49999999999999
vertex 66.1811183182043 18.9188816817957 4.49999999999999
endloop
endfacet
facet normal 0.851570252596808 0.524240502910839 0.0
outer loop
vertex 52.0322658317854 21.0084363790974 1.19999999999998
vertex 52.5557444131789 20.1581037830634 4.49999999999999
vertex 52.5557444131789 20.1581037830634 1.19999999999998
endloop
endfacet
facet normal 0.851570252596808 0.524240502910839 0.0
outer loop
vertex 52.5557444131789 20.1581037830634 4.49999999999999
vertex 52.0322658317854 21.0084363790974 1.19999999999998
vertex 52.0322658317854 21.0084363790974 4.49999999999999
endloop
endfacet
facet normal 0.533248358247101 -3.77501515817539e-15 0.845958739198769
outer loop
vertex 63.7662421905585 -4.99999999999998 3.26533913634431
vertex 62.4968969577338 -4.37858983858641 4.06546830351108
vertex 62.4968969577338 -4.99999999999998 4.06546830351106
endloop
endfacet
facet normal -1.40998324127395e-15 -1.0 8.54535297741781e-16
outer loop
vertex 55.1 -15.5 4.49999999999999
vertex 53.1 -15.5 1.19999999999997
vertex 55.1 -15.5 1.19999999999997
endloop
endfacet
facet normal -1.40998324127395e-15 -1.0 8.54535297741781e-16
outer loop
vertex 53.1 -15.5 1.19999999999997
vertex 55.1 -15.5 4.49999999999999
vertex 53.1 -15.5 4.49999999999999
endloop
endfacet
facet normal -2.16842687995389e-21 0.999947710654778 -0.010226238617818
outer loop
vertex 49.546244722039 -2.49826274752097 4.49999999999999
vertex 55.1 -2.49999999999998 4.33012701892238
vertex 49.5371202891029 -2.49999999999998 4.33012701892238
endloop
endfacet
facet normal -2.16842687995389e-21 0.999947710654778 -0.010226238617818
outer loop
vertex 55.1 -2.49999999999998 4.33012701892238
vertex 49.546244722039 -2.49826274752097 4.49999999999999
vertex 55.1 -2.49826274752097 4.49999999999999
endloop
endfacet
facet normal -0.969885955023815 -0.243559508637095 0.0
outer loop
vertex 50.3346873331288 -6.21469662668579 4.49999999999999
vertex 50.9249178156919 -8.56507193524295 1.19999999999997
vertex 50.9249178156919 -8.56507193524295 4.49999999999999
endloop
endfacet
facet normal -0.969885955023815 -0.243559508637095 0.0
outer loop
vertex 50.9249178156919 -8.56507193524295 1.19999999999997
vertex 50.3346873331288 -6.21469662668579 4.49999999999999
vertex 50.3346873331288 -6.21469662668579 1.19999999999997
endloop
endfacet
facet normal -1.0 1.12798659301916e-15 1.73429761583083e-31
outer loop
vertex 48.1 33.0 4.49999999999999
vertex 48.1 13.0 1.19999999999997
vertex 48.1 13.0 4.49999999999999
endloop
endfacet
facet normal -1.0 1.12798659301916e-15 1.73429761583083e-31
outer loop
vertex 48.1 13.0 1.19999999999997
vertex 48.1 33.0 4.49999999999999
vertex 48.1 33.0 1.19999999999998
endloop
endfacet
facet normal -0.979604991045926 -0.193373748398065 0.0545953747893809
outer loop
vertex 49.546244722039 -2.49826274752097 4.49999999999999
vertex 49.5371202891029 -2.49999999999998 4.33012701892238
vertex 49.8127266714125 -3.84822389681066 4.49999999999999
endloop
endfacet
facet normal -1.40106167346557e-16 -1.4457550711091e-16 1.0
outer loop
vertex 49.8127266714125 -3.84822389681066 4.49999999999999
vertex 55.1 -2.49826274752097 4.49999999999999
vertex 49.546244722039 -2.49826274752097 4.49999999999999
endloop
endfacet
facet normal -1.40106167346557e-16 -1.4457550711091e-16 1.0
outer loop
vertex 55.1 -2.49826274752097 4.49999999999999
vertex 49.8127266714125 -3.84822389681066 4.49999999999999
vertex 49.919017552911 -4.33012701892219 4.49999999999999
endloop
endfacet
facet normal -1.40106167346557e-16 -1.4457550711091e-16 1.0
outer loop
vertex 55.1 -2.49826274752097 4.49999999999999
vertex 49.919017552911 -4.33012701892219 4.49999999999999
vertex 50.3346873331288 -6.21469662668579 4.49999999999999
endloop
endfacet
facet normal -1.40106167346557e-16 -1.4457550711091e-16 1.0
outer loop
vertex 55.1 -2.49826274752097 4.49999999999999
vertex 50.3346873331288 -6.21469662668579 4.49999999999999
vertex 50.9249178156919 -8.56507193524295 4.49999999999999
endloop
endfacet
facet normal -1.40106167346557e-16 -1.4457550711091e-16 1.0
outer loop
vertex 55.1 -2.49826274752097 4.49999999999999
vertex 50.9249178156919 -8.56507193524295 4.49999999999999
vertex 51.5829236440167 -10.8973807577432 4.49999999999999
endloop
endfacet
facet normal -1.40106167346557e-16 -1.4457550711091e-16 1.0
outer loop
vertex 55.1 -2.49826274752097 4.49999999999999
vertex 51.5829236440167 -10.8973807577432 4.49999999999999
vertex 52.3081535631313 -13.209669164937 4.49999999999999
endloop
endfacet
facet normal -1.40106167346557e-16 -1.4457550711091e-16 1.0
outer loop
vertex 55.1 -2.49826274752097 4.49999999999999
vertex 52.3081535631313 -13.209669164937 4.49999999999999
vertex 53.1 -15.5 4.49999999999999
endloop
endfacet
facet normal -1.40106167346557e-16 -1.4457550711091e-16 1.0
outer loop
vertex 55.1 -2.49826274752097 4.49999999999999
vertex 53.1 -15.5 4.49999999999999
vertex 55.1 -15.5 4.49999999999999
endloop
endfacet
facet normal -1.40106167346557e-16 -1.4457550711091e-16 1.0
outer loop
vertex 55.1 -2.49826274752097 4.49999999999999
vertex 55.1 -15.5 4.49999999999999
vertex 55.1 -4.99999999999998 4.49999999999999
endloop
endfacet
facet normal -0.999895273754602 -0.0144720946379163 0.0
outer loop
vertex 48.1 13.0 4.49999999999999
vertex 48.1350709830613 10.576901541462 1.19999999999997
vertex 48.1350709830613 10.576901541462 4.49999999999999
endloop
endfacet
facet normal -0.999895273754602 -0.0144720946379163 0.0
outer loop
vertex 48.1350709830613 10.576901541462 1.19999999999997
vertex 48.1 13.0 4.49999999999999
vertex 48.1 13.0 1.19999999999997
endloop
endfacet
facet normal -0.95416933709978 -0.299267231982666 6.96763623760406e-31
outer loop
vertex 51.5829236440167 -10.8973807577432 4.49999999999999
vertex 52.3081535631313 -13.209669164937 1.19999999999997
vertex 52.3081535631313 -13.209669164937 4.49999999999999
endloop
endfacet
facet normal -0.95416933709978 -0.299267231982666 6.96763623760406e-31
outer loop
vertex 52.3081535631313 -13.209669164937 1.19999999999997
vertex 51.5829236440167 -10.8973807577432 4.49999999999999
vertex 51.5829236440167 -10.8973807577432 1.19999999999997
endloop
endfacet
facet normal -0.97700360890552 0.213222766574281 0.0
outer loop
vertex 86.2421812324246 26.5997790857452 4.49999999999999
vertex 86.0292683599026 25.6241954359385 1.19999999999998
vertex 86.0292683599026 25.6241954359385 4.49999999999999
endloop
endfacet
facet normal -0.97700360890552 0.213222766574281 0.0
outer loop
vertex 86.0292683599026 25.6241954359385 1.19999999999998
vertex 86.2421812324246 26.5997790857452 4.49999999999999
vertex 86.2421812324246 26.5997790857452 1.19999999999998
endloop
endfacet
facet normal 0.945108511478189 -0.326756639613463 5.54087272731117e-16
outer loop
vertex 83.8918464368686 -13.209669164937 1.19999999999997
vertex 83.1 -15.5 4.49999999999999
vertex 83.1 -15.5 1.19999999999997
endloop
endfacet
facet normal 0.945108511478189 -0.326756639613463 5.54087272731117e-16
outer loop
vertex 83.1 -15.5 4.49999999999999
vertex 83.8918464368686 -13.209669164937 1.19999999999997
vertex 83.8918464368686 -13.209669164937 4.49999999999999
endloop
endfacet
facet normal 6.14702463590565e-17 4.87169638747688e-17 1.0
outer loop
vertex 81.1 2.50000000000002 4.49999999999999
vertex 81.7997375741307 17.8016745649683 4.49999999999999
vertex 81.1 17.0893104190391 4.49999999999999
endloop
endfacet
facet normal 6.14702463590565e-17 4.87169638747688e-17 1.0
outer loop
vertex 81.7997375741307 17.8016745649683 4.49999999999999
vertex 81.1 2.50000000000002 4.49999999999999
vertex 87.4243863712226 2.49916221177979 4.49999999999999
endloop
endfacet
facet normal 6.14702463590565e-17 4.87169638747688e-17 1.0
outer loop
vertex 81.7997375741307 17.8016745649683 4.49999999999999
vertex 87.4243863712226 2.49916221177979 4.49999999999999
vertex 82.4583878044225 18.5521912024869 4.49999999999999
endloop
endfacet
facet normal 6.14702463590565e-17 4.87169638747688e-17 1.0
outer loop
vertex 82.4583878044225 18.5521912024869 4.49999999999999
vertex 87.4243863712226 2.49916221177979 4.49999999999999
vertex 83.0738740058031 19.338493997195 4.49999999999999
endloop
endfacet
facet normal 6.14702463590565e-17 4.87169638747688e-17 1.0
outer loop
vertex 83.0738740058031 19.338493997195 4.49999999999999
vertex 87.4243863712226 2.49916221177979 4.49999999999999
vertex 83.644255586821 20.1581037830634 4.49999999999999
endloop
endfacet
facet normal 6.14702463590565e-17 4.87169638747688e-17 1.0
outer loop
vertex 83.644255586821 20.1581037830634 4.49999999999999
vertex 87.4243863712226 2.49916221177979 4.49999999999999
vertex 84.1677341682146 21.0084363790974 4.49999999999999
endloop
endfacet
facet normal 6.14702463590565e-17 4.87169638747688e-17 1.0
outer loop
vertex 84.1677341682146 21.0084363790974 4.49999999999999
vertex 87.4243863712226 2.49916221177979 4.49999999999999
vertex 84.6426592530956 21.8868107371057 4.49999999999999
endloop
endfacet
facet normal 6.14702463590565e-17 4.87169638747688e-17 1.0
outer loop
vertex 84.6426592530956 21.8868107371057 4.49999999999999
vertex 87.4243863712226 2.49916221177979 4.49999999999999
vertex 85.0675334308675 22.7904573948865 4.49999999999999
endloop
endfacet
facet normal 6.14702463590565e-17 4.87169638747688e-17 1.0
outer loop
vertex 85.0675334308675 22.7904573948865 4.49999999999999
vertex 87.4243863712226 2.49916221177979 4.49999999999999
vertex 85.4410170984726 23.716527208177 4.49999999999999
endloop
endfacet
facet normal 6.14702463590565e-17 4.87169638747688e-17 1.0
outer loop
vertex 85.4410170984726 23.716527208177 4.49999999999999
vertex 87.4243863712226 2.49916221177979 4.49999999999999
vertex 85.7619326840806 24.6621003338366 4.49999999999999
endloop
endfacet
facet normal 6.14702463590565e-17 4.87169638747688e-17 1.0
outer loop
vertex 85.7619326840806 24.6621003338366 4.49999999999999
vertex 87.4243863712226 2.49916221177979 4.49999999999999
vertex 86.0292683599026 25.6241954359385 4.49999999999999
endloop
endfacet
facet normal 6.14702463590565e-17 4.87169638747688e-17 1.0
outer loop
vertex 86.0292683599026 25.6241954359385 4.49999999999999
vertex 87.4243863712226 2.49916221177979 4.49999999999999
vertex 86.2421812324246 26.5997790857452 4.49999999999999
endloop
endfacet
facet normal 6.14702463590565e-17 4.87169638747688e-17 1.0
outer loop
vertex 86.2421812324246 26.5997790857452 4.49999999999999
vertex 87.4243863712226 2.49916221177979 4.49999999999999
vertex 86.3999999999999 27.5857753259291 4.49999999999999
endloop
endfacet
facet normal 6.14702463590565e-17 4.87169638747688e-17 1.0
outer loop
vertex 86.3999999999999 27.5857753259291 4.49999999999999
vertex 87.4243863712226 2.49916221177979 4.49999999999999
vertex 86.3999999999999 33.0 4.49999999999999
endloop
endfacet
facet normal 6.14702463590565e-17 4.87169638747688e-17 1.0
outer loop
vertex 86.3999999999999 33.0 4.49999999999999
vertex 87.4243863712226 2.49916221177979 4.49999999999999
vertex 88.1 33.0 4.49999999999999
endloop
endfacet
facet normal 6.14702463590565e-17 4.87169638747688e-17 1.0
outer loop
vertex 88.1 33.0 4.49999999999999
vertex 87.4243863712226 2.49916221177979 4.49999999999999
vertex 87.539451699731 3.32789586061524 4.49999999999999
endloop
endfacet
facet normal 6.14702463590565e-17 4.87169638747688e-17 1.0
outer loop
vertex 88.1 33.0 4.49999999999999
vertex 87.539451699731 3.32789586061524 4.49999999999999
vertex 87.784537415516 5.73882288264226 4.49999999999999
endloop
endfacet
facet normal 6.14702463590565e-17 4.87169638747688e-17 1.0
outer loop
vertex 88.1 33.0 4.49999999999999
vertex 87.784537415516 5.73882288264226 4.49999999999999
vertex 87.9597454490351 8.15583307265224 4.49999999999999
endloop
endfacet
facet normal 6.14702463590565e-17 4.87169638747688e-17 1.0
outer loop
vertex 88.1 33.0 4.49999999999999
vertex 87.9597454490351 8.15583307265224 4.49999999999999
vertex 88.0649290169386 10.576901541462 4.49999999999999
endloop
endfacet
facet normal 6.14702463590565e-17 4.87169638747688e-17 1.0
outer loop
vertex 88.1 33.0 4.49999999999999
vertex 88.0649290169386 10.576901541462 4.49999999999999
vertex 88.1 13.0 4.49999999999999
endloop
endfacet
facet normal -0.963495428659704 0.267724782102541 0.0
outer loop
vertex 86.0292683599026 25.6241954359385 4.49999999999999
vertex 85.7619326840806 24.6621003338366 1.19999999999998
vertex 85.7619326840806 24.6621003338366 4.49999999999999
endloop
endfacet
facet normal -0.963495428659704 0.267724782102541 0.0
outer loop
vertex 85.7619326840806 24.6621003338366 1.19999999999998
vertex 86.0292683599026 25.6241954359385 4.49999999999999
vertex 86.0292683599026 25.6241954359385 1.19999999999998
endloop
endfacet
facet normal 0.92387953251128 0.382683432365107 -3.7232436114653e-18
outer loop
vertex 68.1 22.0330841324709 1.19999999999997
vertex 68.6521815274538 20.7 4.49999999999999
vertex 68.6521815274538 20.7 1.19999999999997
endloop
endfacet
facet normal 0.92387953251128 0.382683432365107 -3.7232436114653e-18
outer loop
vertex 68.6521815274538 20.7 4.49999999999999
vertex 68.1 22.0330841324709 1.19999999999997
vertex 68.1 22.0330841324709 4.49999999999999
endloop
endfacet
facet normal 0.999057595397864 -0.0434041596835845 0.0
outer loop
vertex 88.0649290169386 10.576901541462 1.19999999999997
vertex 87.9597454490351 8.15583307265224 4.49999999999999
vertex 87.9597454490351 8.15583307265224 1.19999999999997
endloop
endfacet
facet normal 0.999057595397864 -0.0434041596835845 0.0
outer loop
vertex 87.9597454490351 8.15583307265224 4.49999999999999
vertex 88.0649290169386 10.576901541462 1.19999999999997
vertex 88.0649290169386 10.576901541462 4.49999999999999
endloop
endfacet
facet normal 0.989785000402675 -0.137426465528515 -0.0379423187248134
outer loop
vertex 87.539451699731 3.32789586061524 4.49999999999999
vertex 87.4243863712226 2.49916221177979 4.49999999999999
vertex 87.4179907999478 2.50000000000002 4.33012701892238
endloop
endfacet
facet normal -8.919873352879e-17 -0.608761429008723 0.793353340291233
outer loop
vertex 61.3719305985791 -3.17953469741076 5.05839060410472
vertex 74.9410688868044 -3.00000000000001 5.19615242270663
vertex 61.2589311131956 -3.0 5.19615242270663
endloop
endfacet
facet normal -8.919873352879e-17 -0.608761429008723 0.793353340291233
outer loop
vertex 74.9410688868044 -3.00000000000001 5.19615242270663
vertex 61.3719305985791 -3.17953469741076 5.05839060410472
vertex 62.2961632535846 -4.24264068711928 4.24264068711928
endloop
endfacet
facet normal -8.919873352879e-17 -0.608761429008723 0.793353340291233
outer loop
vertex 74.9410688868044 -3.00000000000001 5.19615242270663
vertex 62.2961632535846 -4.24264068711928 4.24264068711928
vertex 73.9038367464154 -4.24264068711928 4.24264068711928
endloop
endfacet
facet normal -8.919873352879e-17 -0.608761429008723 0.793353340291233
outer loop
vertex 74.9410688868044 -3.00000000000001 5.19615242270663
vertex 73.9038367464154 -4.24264068711928 4.24264068711928
vertex 74.8280694014208 -3.17953469741076 5.05839060410472
endloop
endfacet
facet normal -0.879652829272228 0.475616336928584 0.0
outer loop
vertex 84.6426592530956 21.8868107371057 4.49999999999999
vertex 84.1677341682146 21.0084363790974 1.19999999999998
vertex 84.1677341682146 21.0084363790974 4.49999999999999
endloop
endfacet
facet normal -0.879652829272228 0.475616336928584 0.0
outer loop
vertex 84.1677341682146 21.0084363790974 1.19999999999998
vertex 84.6426592530956 21.8868107371057 4.49999999999999
vertex 84.6426592530956 21.8868107371057 1.19999999999998
endloop
endfacet
facet normal 0.979680082402344 -0.200553717052657 -0.00226775671099233
outer loop
vertex 86.6628797108971 -2.49999999999998 4.33012701892238
vertex 86.3872733285874 -3.84822389681066 4.49999999999999
vertex 86.280982447089 -4.3301270189222 1.19999999999997
endloop
endfacet
facet normal 0.997382940462911 -0.0722998621959794 7.67962259338846e-19
outer loop
vertex 87.9597454490351 8.15583307265224 1.19999999999997
vertex 87.784537415516 5.73882288264226 4.49999999999999
vertex 87.784537415516 5.73882288264226 1.19999999999997
endloop
endfacet
facet normal 0.997382940462911 -0.0722998621959794 7.67962259338846e-19
outer loop
vertex 87.784537415516 5.73882288264226 4.49999999999999
vertex 87.9597454490351 8.15583307265224 1.19999999999997
vertex 87.9597454490351 8.15583307265224 4.49999999999999
endloop
endfacet
facet normal -0.13052619222008 0.991444861373807 0.0
outer loop
vertex 76.1 16.3999999999999 4.49999999999999
vertex 78.3258437878817 16.693037893914 1.19999999999997
vertex 76.1 16.3999999999999 1.19999999999997
endloop
endfacet
facet normal -0.13052619222008 0.991444861373807 0.0
outer loop
vertex 78.3258437878817 16.693037893914 1.19999999999997
vertex 76.1 16.3999999999999 4.49999999999999
vertex 78.3258437878817 16.693037893914 4.49999999999999
endloop
endfacet
facet normal 3.33294637406127e-15 -3.66595642731223e-15 1.0
outer loop
vertex 81.1 -5.00000000000002 5.99999999999996
vertex 75.6004269257935 0.0 6.0
vertex 75.6004269257935 -5.00000000000004 6.0
endloop
endfacet
facet normal 3.33294637406127e-15 -3.66595642731223e-15 1.0
outer loop
vertex 75.6004269257935 0.0 6.0
vertex 81.1 -5.00000000000002 5.99999999999996
vertex 81.1 0.0 6.0
endloop
endfacet
facet normal 0.967774690376627 -0.251817689343748 0.0
outer loop
vertex 87.784537415516 5.73882288264226 4.49999999999999
vertex 87.4179907999478 4.33012701892219 1.19999999999997
vertex 87.784537415516 5.73882288264226 1.19999999999997
endloop
endfacet
facet normal 0.962430792003919 -0.271527108412235 0.0
outer loop
vertex 85.275082184308 -8.56507193524295 1.19999999999997
vertex 84.6170763559832 -10.8973807577432 4.49999999999999
vertex 84.6170763559832 -10.8973807577432 1.19999999999997
endloop
endfacet
facet normal 0.962430792003919 -0.271527108412235 0.0
outer loop
vertex 84.6170763559832 -10.8973807577432 4.49999999999999
vertex 85.275082184308 -8.56507193524295 1.19999999999997
vertex 85.275082184308 -8.56507193524295 4.49999999999999
endloop
endfacet
facet normal 0.608761429008739 0.793353340291221 0.0
outer loop
vertex 70.0188816817957 18.9188816817957 4.49999999999999
vertex 71.8 17.5521815274538 1.19999999999997
vertex 70.0188816817957 18.9188816817957 1.19999999999997
endloop
endfacet
facet normal 0.608761429008739 0.793353340291221 0.0
outer loop
vertex 71.8 17.5521815274538 1.19999999999997
vertex 70.0188816817957 18.9188816817957 4.49999999999999
vertex 71.8 17.5521815274538 4.49999999999999
endloop
endfacet
facet normal 0.414177015538423 0.22463293334108 0.882041634537887
outer loop
vertex 61.2589311131956 3.0 5.19615242270663
vertex 55.1 17.0893104190391 4.49999999999999
vertex 60.7672696449957 1.55291427061512 5.79555495773441
endloop
endfacet
facet normal 3.26661076704689e-17 0.863271966145011 -0.504739053836858
outer loop
vertex 49.5371202891029 -2.49999999999998 4.33012701892238
vertex 86.280982447089 -4.3301270189222 1.19999999999997
vertex 49.919017552911 -4.33012701892219 1.19999999999997
endloop
endfacet
facet normal 3.26661076704689e-17 0.863271966145011 -0.504739053836858
outer loop
vertex 86.280982447089 -4.3301270189222 1.19999999999997
vertex 49.5371202891029 -2.49999999999998 4.33012701892238
vertex 55.1 -2.49999999999998 4.33012701892238
endloop
endfacet
facet normal 3.26661076704689e-17 0.863271966145011 -0.504739053836858
outer loop
vertex 86.280982447089 -4.3301270189222 1.19999999999997
vertex 55.1 -2.49999999999998 4.33012701892238
vertex 86.6628797108971 -2.49999999999998 4.33012701892238
endloop
endfacet
facet normal 3.26661076704689e-17 0.863271966145011 -0.504739053836858
outer loop
vertex 86.6628797108971 -2.49999999999998 4.33012701892238
vertex 55.1 -2.49999999999998 4.33012701892238
vertex 81.1 -2.49999999999998 4.33012701892238
endloop
endfacet
facet normal -3.58547695124512e-17 -1.0 -8.59030914369986e-15
outer loop
vertex 81.1 -4.99999999999998 1.19999999999997
vertex 72.4337578094415 -4.99999999999998 3.2653391363443
vertex 55.1 -4.99999999999998 1.19999999999997
endloop
endfacet
facet normal -3.58547695124512e-17 -1.0 -8.59030914369986e-15
outer loop
vertex 72.4337578094415 -4.99999999999998 3.2653391363443
vertex 81.1 -4.99999999999998 1.19999999999997
vertex 81.1 -4.99999999999998 4.49999999999999
endloop
endfacet
facet normal -3.58547695124512e-17 -1.0 -8.59030914369986e-15
outer loop
vertex 72.4337578094415 -4.99999999999998 3.2653391363443
vertex 81.1 -4.99999999999998 4.49999999999999
vertex 73.7031030422662 -4.99999999999998 4.06546830351106
endloop
endfacet
facet normal -3.58547695124512e-17 -1.0 -8.59030914369986e-15
outer loop
vertex 73.7031030422662 -4.99999999999998 4.06546830351106
vertex 81.1 -4.99999999999998 4.49999999999999
vertex 74.8280694014208 -4.99999999999998 5.05839060410473
endloop
endfacet
facet normal -3.58547695124512e-17 -1.0 -8.59030914369986e-15
outer loop
vertex 74.8280694014208 -4.99999999999998 5.05839060410473
vertex 81.1 -4.99999999999998 4.49999999999999
vertex 81.1 -5.00000000000002 5.99999999999996
endloop
endfacet
facet normal -3.58547695124512e-17 -1.0 -8.59030914369986e-15
outer loop
vertex 74.8280694014208 -4.99999999999998 5.05839060410473
vertex 81.1 -5.00000000000002 5.99999999999996
vertex 75.6004269257935 -5.00000000000004 6.0
endloop
endfacet
facet normal -3.58547695124512e-17 -1.0 -8.59030914369986e-15
outer loop
vertex 55.1 -4.99999999999998 1.19999999999997
vertex 63.7662421905585 -4.99999999999998 3.26533913634431
vertex 55.1 -4.99999999999998 4.49999999999999
endloop
endfacet
facet normal -3.58547695124512e-17 -1.0 -8.59030914369986e-15
outer loop
vertex 63.7662421905585 -4.99999999999998 3.26533913634431
vertex 55.1 -4.99999999999998 1.19999999999997
vertex 72.4337578094415 -4.99999999999998 3.2653391363443
endloop
endfacet
facet normal -3.58547695124512e-17 -1.0 -8.59030914369986e-15
outer loop
vertex 55.1 -4.99999999999998 4.49999999999999
vertex 63.7662421905585 -4.99999999999998 3.26533913634431
vertex 62.4968969577338 -4.99999999999998 4.06546830351106
endloop
endfacet
facet normal -3.58547695124512e-17 -1.0 -8.59030914369986e-15
outer loop
vertex 55.1 -4.99999999999998 4.49999999999999
vertex 62.4968969577338 -4.99999999999998 4.06546830351106
vertex 61.3719305985792 -4.99999999999998 5.05839060410473
endloop
endfacet
facet normal -3.58547695124512e-17 -1.0 -8.59030914369986e-15
outer loop
vertex 55.1 -4.99999999999998 4.49999999999999
vertex 61.3719305985792 -4.99999999999998 5.05839060410473
vertex 55.1 -5.00000000000002 5.99999999999996
endloop
endfacet
facet normal -3.58547695124512e-17 -1.0 -8.59030914369986e-15
outer loop
vertex 55.1 -5.00000000000002 5.99999999999996
vertex 61.3719305985792 -4.99999999999998 5.05839060410473
vertex 60.5995730742064 -5.00000000000003 6.0
endloop
endfacet
facet normal 0.100838278807043 0.119149400590288 0.98774240663556
outer loop
vertex 60.7672696449957 1.55291427061512 5.79555495773441
vertex 55.1 17.0893104190391 4.49999999999999
vertex 60.5995730742064 0.0 6.0
endloop
endfacet
facet normal -0.820802725472467 0.571211769711523 0.0
outer loop
vertex 83.644255586821 20.1581037830634 4.49999999999999
vertex 83.0738740058031 19.338493997195 1.19999999999998
vertex 83.0738740058031 19.338493997195 4.49999999999999
endloop
endfacet
facet normal -0.820802725472467 0.571211769711523 0.0
outer loop
vertex 83.0738740058031 19.338493997195 1.19999999999998
vertex 83.644255586821 20.1581037830634 4.49999999999999
vertex 83.644255586821 20.1581037830634 1.19999999999998
endloop
endfacet
facet normal -0.787447256085628 0.616382039714993 0.0
outer loop
vertex 83.0738740058031 19.338493997195 4.49999999999999
vertex 82.4583878044225 18.5521912024869 1.19999999999998
vertex 82.4583878044225 18.5521912024869 4.49999999999999
endloop
endfacet
facet normal -0.787447256085628 0.616382039714993 0.0
outer loop
vertex 82.4583878044225 18.5521912024869 1.19999999999998
vertex 83.0738740058031 19.338493997195 4.49999999999999
vertex 83.0738740058031 19.338493997195 1.19999999999998
endloop
endfacet
facet normal 2.71150623321913e-17 -4.69994413757983e-17 -1.0
outer loop
vertex 55.1 2.50000000000002 4.33012701892238
vertex 81.1 -2.49999999999998 4.33012701892238
vertex 55.1 -2.49999999999998 4.33012701892238
endloop
endfacet
facet normal 2.71150623321913e-17 -4.69994413757983e-17 -1.0
outer loop
vertex 81.1 -2.49999999999998 4.33012701892238
vertex 55.1 2.50000000000002 4.33012701892238
vertex 81.1 2.50000000000002 4.33012701892238
endloop
endfacet
facet normal -3.01506297823312e-17 0.608761429008728 0.79335334029123
outer loop
vertex 74.9410688868043 3.0 5.19615242270663
vertex 61.3719305985791 3.17953469741075 5.05839060410472
vertex 61.2589311131956 3.0 5.19615242270663
endloop
endfacet
facet normal -3.01506297823312e-17 0.608761429008728 0.79335334029123
outer loop
vertex 61.3719305985791 3.17953469741075 5.05839060410472
vertex 74.9410688868043 3.0 5.19615242270663
vertex 62.0045789382431 3.90724350063615 4.49999999999999
endloop
endfacet
facet normal -3.01506297823312e-17 0.608761429008728 0.79335334029123
outer loop
vertex 62.0045789382431 3.90724350063615 4.49999999999999
vertex 74.9410688868043 3.0 5.19615242270663
vertex 74.1954210617569 3.90724350063615 4.49999999999999
endloop
endfacet
facet normal -3.01506297823312e-17 0.608761429008728 0.79335334029123
outer loop
vertex 74.1954210617569 3.90724350063615 4.49999999999999
vertex 74.9410688868043 3.0 5.19615242270663
vertex 74.8280694014208 3.17953469741075 5.05839060410472
endloop
endfacet
facet normal -0.946949404529824 0.321382677287703 0.0
outer loop
vertex 85.7619326840806 24.6621003338366 4.49999999999999
vertex 85.4410170984726 23.716527208177 1.19999999999998
vertex 85.4410170984726 23.716527208177 4.49999999999999
endloop
endfacet
facet normal -0.946949404529824 0.321382677287703 0.0
outer loop
vertex 85.4410170984726 23.716527208177 1.19999999999998
vertex 85.7619326840806 24.6621003338366 4.49999999999999
vertex 85.7619326840806 24.6621003338366 1.19999999999998
endloop
endfacet
facet normal 0.992625110471964 -0.10090651167932 -0.0671808451958775
outer loop
vertex 87.784537415516 5.73882288264226 4.49999999999999
vertex 87.539451699731 3.32789586061524 4.49999999999999
vertex 87.4179907999478 4.33012701892219 1.19999999999997
endloop
endfacet
facet normal -1.0 0.0 0.0
outer loop
vertex 86.3999999999999 33.0 4.49999999999999
vertex 86.3999999999999 27.5857753259291 1.19999999999998
vertex 86.3999999999999 27.5857753259291 4.49999999999999
endloop
endfacet
facet normal -1.0 0.0 0.0
outer loop
vertex 86.3999999999999 27.5857753259291 1.19999999999998
vertex 86.3999999999999 33.0 4.49999999999999
vertex 86.3999999999999 33.0 1.19999999999998
endloop
endfacet
facet normal -0.751609012250894 0.659608893741766 0.0
outer loop
vertex 82.4583878044225 18.5521912024869 4.49999999999999
vertex 81.7997375741307 17.8016745649683 1.19999999999998
vertex 81.7997375741307 17.8016745649683 4.49999999999999
endloop
endfacet
facet normal -0.751609012250894 0.659608893741766 0.0
outer loop
vertex 81.7997375741307 17.8016745649683 1.19999999999998
vertex 82.4583878044225 18.5521912024869 4.49999999999999
vertex 82.4583878044225 18.5521912024869 1.19999999999998
endloop
endfacet
facet normal 0.988682185500766 -0.129512478709319 -0.075723536182601
outer loop
vertex 87.4179907999478 4.33012701892219 1.19999999999997
vertex 87.539451699731 3.32789586061524 4.49999999999999
vertex 87.4179907999478 2.50000000000002 4.33012701892238
endloop
endfacet
facet normal -0.130526192220079 0.991444861373807 9.53142164087373e-32
outer loop
vertex 60.1 16.3999999999999 4.49999999999999
vertex 62.3258437878817 16.693037893914 1.19999999999997
vertex 60.1 16.3999999999999 1.19999999999997
endloop
endfacet
facet normal -0.130526192220079 0.991444861373807 9.53142164087373e-32
outer loop
vertex 62.3258437878817 16.693037893914 1.19999999999997
vertex 60.1 16.3999999999999 4.49999999999999
vertex 62.3258437878817 16.693037893914 4.49999999999999
endloop
endfacet
facet normal 0.773172034290441 1.19679254308812e-15 0.63419634608785
outer loop
vertex 60.5995730742064 -5.00000000000003 6.0
vertex 60.7672696449956 -1.55291427061513 5.79555495773441
vertex 60.5995730742064 0.0 6.0
endloop
endfacet
facet normal 0.773172034290441 1.19679254308812e-15 0.63419634608785
outer loop
vertex 60.7672696449956 -1.55291427061513 5.79555495773441
vertex 60.5995730742064 -5.00000000000003 6.0
vertex 61.3719305985792 -4.99999999999998 5.05839060410473
endloop
endfacet
facet normal 0.773172034290441 1.19679254308812e-15 0.63419634608785
outer loop
vertex 60.7672696449956 -1.55291427061513 5.79555495773441
vertex 61.3719305985792 -4.99999999999998 5.05839060410473
vertex 61.2589311131956 -3.0 5.19615242270663
endloop
endfacet
facet normal 0.773172034290441 1.19679254308812e-15 0.63419634608785
outer loop
vertex 61.2589311131956 -3.0 5.19615242270663
vertex 61.3719305985792 -4.99999999999998 5.05839060410473
vertex 61.3719305985791 -3.17953469741076 5.05839060410472
endloop
endfacet
facet normal 0.927417705147662 0.37402727197177 0.0
outer loop
vertex 50.7589829015273 23.716527208177 1.19999999999998
vertex 51.1324665691324 22.7904573948865 4.49999999999999
vertex 51.1324665691324 22.7904573948865 1.19999999999998
endloop
endfacet
facet normal 0.927417705147662 0.37402727197177 0.0
outer loop
vertex 51.1324665691324 22.7904573948865 4.49999999999999
vertex 50.7589829015273 23.716527208177 1.19999999999998
vertex 50.7589829015273 23.716527208177 4.49999999999999
endloop
endfacet
facet normal 0.713400989823465 0.700756040087348 -3.36398908584699e-18
outer loop
vertex 54.4002624258693 17.8016745649683 1.19999999999998
vertex 55.1 17.0893104190391 4.49999999999999
vertex 55.1 17.0893104190391 1.19999999999997
endloop
endfacet
facet normal 0.713400989823465 0.700756040087348 -3.36398908584699e-18
outer loop
vertex 55.1 17.0893104190391 4.49999999999999
vertex 54.4002624258693 17.8016745649683 1.19999999999998
vertex 54.4002624258693 17.8016745649683 4.49999999999999
endloop
endfacet
facet normal 0.141408939684022 0.989951267375036 0.0
outer loop
vertex 55.1 17.0893104190391 4.49999999999999
vertex 57.8741562121183 16.693037893914 1.19999999999997
vertex 55.1 17.0893104190391 1.19999999999997
endloop
endfacet
facet normal 0.141408939684022 0.989951267375036 0.0
outer loop
vertex 57.8741562121183 16.693037893914 1.19999999999997
vertex 55.1 17.0893104190391 4.49999999999999
vertex 57.8741562121183 16.693037893914 4.49999999999999
endloop
endfacet
facet normal 0.987431354776988 0.158048472321889 0.0
outer loop
vertex 49.8 27.5857753259291 1.19999999999998
vertex 49.9578187675754 26.5997790857452 4.49999999999999
vertex 49.9578187675754 26.5997790857452 1.19999999999998
endloop
endfacet
facet normal 0.987431354776988 0.158048472321889 0.0
outer loop
vertex 49.9578187675754 26.5997790857452 4.49999999999999
vertex 49.8 27.5857753259291 1.19999999999998
vertex 49.8 27.5857753259291 4.49999999999999
endloop
endfacet
facet normal 6.63015562611286e-05 -0.999996960498641 -0.00246466987312692
outer loop
vertex 55.1 2.50000000000002 4.49999999999999
vertex 48.7820092000522 2.50000000000002 4.33012701892238
vertex 55.1 2.50000000000002 4.33012701892238
endloop
endfacet
facet normal 6.63015562611286e-05 -0.999996960498641 -0.00246466987312692
outer loop
vertex 48.7820092000522 2.50000000000002 4.33012701892238
vertex 55.1 2.50000000000002 4.49999999999999
vertex 48.7756136287774 2.49916221177979 4.49999999999999
endloop
endfacet
facet normal -0.793353340291235 0.60876142900872 3.57062761729973e-31
outer loop
vertex 67.5478184725462 20.7 4.49999999999999
vertex 66.1811183182043 18.9188816817957 1.19999999999997
vertex 66.1811183182043 18.9188816817957 4.49999999999999
endloop
endfacet
facet normal -0.793353340291235 0.60876142900872 3.57062761729973e-31
outer loop
vertex 66.1811183182043 18.9188816817957 1.19999999999997
vertex 67.5478184725462 20.7 4.49999999999999
vertex 67.5478184725462 20.7 1.19999999999997
endloop
endfacet
facet normal 0.0 0.0874379895947978 0.996169964401467
outer loop
vertex 60.5995730742064 0.0 6.0
vertex 55.1 17.0893104190391 4.49999999999999
vertex 55.1 0.0 6.0
endloop
endfacet
facet normal -4.68176432605582e-17 0.130526192220052 0.99144486137381
outer loop
vertex 75.6004269257935 0.0 6.0
vertex 60.7672696449957 1.55291427061512 5.79555495773441
vertex 60.5995730742064 0.0 6.0
endloop
endfacet
facet normal -4.68176432605582e-17 0.130526192220052 0.99144486137381
outer loop
vertex 60.7672696449957 1.55291427061512 5.79555495773441
vertex 75.6004269257935 0.0 6.0
vertex 75.4327303550044 1.55291427061512 5.79555495773441
endloop
endfacet
facet normal 0.979604991045921 -0.193373748398056 0.0545953747895105
outer loop
vertex 86.6537552779609 -2.49826274752097 4.49999999999999
vertex 86.3872733285874 -3.84822389681066 4.49999999999999
vertex 86.6628797108971 -2.49999999999998 4.33012701892238
endloop
endfacet
facet normal 2.21556659473551e-21 0.999947710654778 -0.010226238617818
outer loop
vertex 81.1 -2.49826274752097 4.49999999999999
vertex 86.6628797108971 -2.49999999999998 4.33012701892238
vertex 81.1 -2.49999999999998 4.33012701892238
endloop
endfacet
facet normal 2.21556659473551e-21 0.999947710654778 -0.010226238617818
outer loop
vertex 86.6628797108971 -2.49999999999998 4.33012701892238
vertex 81.1 -2.49826274752097 4.49999999999999
vertex 86.6537552779609 -2.49826274752097 4.49999999999999
endloop
endfacet
facet normal -6.43964979096528e-17 -0.382683432365092 0.923879532511286
outer loop
vertex 61.2589311131956 -3.0 5.19615242270663
vertex 75.4327303550044 -1.55291427061513 5.79555495773441
vertex 60.7672696449956 -1.55291427061513 5.79555495773441
endloop
endfacet
facet normal -6.43964979096528e-17 -0.382683432365092 0.923879532511286
outer loop
vertex 75.4327303550044 -1.55291427061513 5.79555495773441
vertex 61.2589311131956 -3.0 5.19615242270663
vertex 74.9410688868044 -3.00000000000001 5.19615242270663
endloop
endfacet
facet normal 0.969885955023817 -0.243559508637087 0.0
outer loop
vertex 85.8653126668712 -6.21469662668579 1.19999999999997
vertex 85.275082184308 -8.56507193524295 4.49999999999999
vertex 85.275082184308 -8.56507193524295 1.19999999999997
endloop
endfacet
facet normal 0.969885955023817 -0.243559508637087 0.0
outer loop
vertex 85.275082184308 -8.56507193524295 4.49999999999999
vertex 85.8653126668712 -6.21469662668579 1.19999999999997
vertex 85.8653126668712 -6.21469662668579 4.49999999999999
endloop
endfacet
facet normal 2.81996648254792e-15 -1.0 1.70907059548356e-15
outer loop
vertex 83.1 -15.5 4.49999999999999
vertex 81.1 -15.5 1.19999999999997
vertex 83.1 -15.5 1.19999999999997
endloop
endfacet
facet normal 2.81996648254792e-15 -1.0 1.70907059548356e-15
outer loop
vertex 81.1 -15.5 1.19999999999997
vertex 83.1 -15.5 4.49999999999999
vertex 81.1 -15.5 4.49999999999999
endloop
endfacet
facet normal -0.904961912801781 0.425492580873207 0.0
outer loop
vertex 85.0675334308675 22.7904573948865 4.49999999999999
vertex 84.6426592530956 21.8868107371057 1.19999999999998
vertex 84.6426592530956 21.8868107371057 4.49999999999999
endloop
endfacet
facet normal -0.904961912801781 0.425492580873207 0.0
outer loop
vertex 84.6426592530956 21.8868107371057 1.19999999999998
vertex 85.0675334308675 22.7904573948865 4.49999999999999
vertex 85.0675334308675 22.7904573948865 1.19999999999998
endloop
endfacet
facet normal -0.467742349651539 0.24499678206152 0.849231223591054
outer loop
vertex 81.1 17.0893104190391 4.49999999999999
vertex 74.1954210617569 3.90724350063615 4.49999999999999
vertex 74.8280694014208 3.17953469741075 5.05839060410472
endloop
endfacet
facet normal 0.976528580476673 -0.215387862964035 3.19068590521151e-18
outer loop
vertex 86.3872733285874 -3.84822389681066 4.49999999999999
vertex 86.280982447089 -4.3301270189222 4.49999999999999
vertex 86.280982447089 -4.3301270189222 1.19999999999997
endloop
endfacet
facet normal 0.976528580476674 -0.215387862964031 -1.47703668141401e-18
outer loop
vertex 86.280982447089 -4.3301270189222 1.19999999999997
vertex 85.8653126668712 -6.21469662668579 4.49999999999999
vertex 85.8653126668712 -6.21469662668579 1.19999999999997
endloop
endfacet
facet normal 0.976528580476674 -0.215387862964031 -1.47703668141401e-18
outer loop
vertex 85.8653126668712 -6.21469662668579 4.49999999999999
vertex 86.280982447089 -4.3301270189222 1.19999999999997
vertex 86.280982447089 -4.3301270189222 4.49999999999999
endloop
endfacet
facet normal 0.0 1.0 0.0
outer loop
vertex 86.3999999999999 33.0 4.49999999999999
vertex 88.1 33.0 1.19999999999998
vertex 86.3999999999999 33.0 1.19999999999998
endloop
endfacet
facet normal 0.0 1.0 0.0
outer loop
vertex 88.1 33.0 1.19999999999998
vertex 86.3999999999999 33.0 4.49999999999999
vertex 88.1 33.0 4.49999999999999
endloop
endfacet
facet normal -1.0 0.0 0.0
outer loop
vertex 81.1 -4.99999999999998 4.49999999999999
vertex 81.1 -15.5 1.19999999999997
vertex 81.1 -15.5 4.49999999999999
endloop
endfacet
facet normal -1.0 0.0 0.0
outer loop
vertex 81.1 -15.5 1.19999999999997
vertex 81.1 -4.99999999999998 4.49999999999999
vertex 81.1 -4.99999999999998 1.19999999999997
endloop
endfacet
endsolid Carriage
